<?xml version="1.0" encoding="utf-8"?>
<!-- Generator: Adobe Illustrator 23.0.1, SVG Export Plug-In . SVG Version: 6.00 Build 0)  -->
<svg version="1.1" id="Слой_1" xmlns="http://www.w3.org/2000/svg" xmlns:xlink="http://www.w3.org/1999/xlink" x="0px" y="0px"
	 viewBox="0 0 384.88 397.39" style="enable-background:new 0 0 384.88 397.39;" xml:space="preserve">
<style type="text/css">
	.st0{display:none;}
	.st1{display:inline;}
	.st2{enable-background:new    ;}
	.st3{fill:none;stroke:#CCCCCC;stroke-width:0.7087;stroke-miterlimit:10;}
</style>
<g class="st0">
	<path class="st1" d="M212.96,450.26v6.22c0,3.24-1.09,5.45-3.24,6.63c-2.15,1.17-5.71,1.77-10.67,1.77h-4.36v10.68h-7.88v-32.82
		h13.14c4.66,0,7.98,0.51,9.99,1.54C211.97,445.3,212.96,447.3,212.96,450.26z M205.34,456.24v-5.26c0-1.04-0.41-1.74-1.23-2.1
		c-0.8-0.36-2.31-0.53-4.5-0.53h-4.91v11.13h5.01c2.06,0,3.5-0.25,4.34-0.73C204.91,458.26,205.34,457.41,205.34,456.24z"/>
	<path class="st1" d="M257.87,475.56h-9.1l-8.59-12.91h-3.66v12.91h-7.88v-32.82h14.76c4.32,0,7.49,0.52,9.48,1.56
		c1.97,1.04,2.99,2.83,2.99,5.35v5.76c0,1.99-0.73,3.54-2.17,4.61c-1.42,1.08-3.2,1.76-5.33,2.03L257.87,475.56z M248.11,453.86
		v-2.33c0-1.21-0.36-2.04-1.1-2.49c-0.71-0.46-1.96-0.69-3.7-0.69h-6.79v9.1h6.79c1.85,0,3.11-0.25,3.79-0.73
		C247.78,456.23,248.11,455.28,248.11,453.86z"/>
	<path class="st1" d="M302.96,452.18v14.37c0,1.87-0.48,3.45-1.46,4.76c-0.98,1.32-2.29,2.29-3.95,2.95
		c-1.65,0.66-3.31,1.12-4.96,1.39c-1.65,0.28-3.38,0.41-5.25,0.41c-1.74,0-3.4-0.11-4.92-0.33c-1.53-0.21-3.16-0.63-4.91-1.24
		c-1.74-0.6-3.13-1.58-4.14-2.93c-1.03-1.35-1.55-3.01-1.55-5.01v-14.37c0-1.68,0.39-3.16,1.14-4.44c0.76-1.28,1.67-2.26,2.74-2.93
		s2.35-1.23,3.86-1.64c1.51-0.43,2.86-0.69,4.05-0.78c1.17-0.11,2.42-0.16,3.73-0.16c1.35,0,2.63,0.05,3.81,0.16
		c1.19,0.09,2.56,0.36,4.07,0.78c1.51,0.41,2.83,0.96,3.89,1.64c1.07,0.68,1.99,1.64,2.74,2.92
		C302.61,448.98,302.96,450.48,302.96,452.18z M295.07,466.55v-14.41c0-1.59-0.64-2.69-1.94-3.33c-1.3-0.65-3.2-0.97-5.72-0.97
		c-2.56,0-4.48,0.31-5.76,0.93c-1.28,0.63-1.92,1.76-1.92,3.37v14.41c0,0.85,0.21,1.55,0.66,2.11c0.44,0.56,1.07,0.95,1.88,1.18
		c0.84,0.24,1.64,0.41,2.38,0.48c0.76,0.09,1.69,0.14,2.81,0.14c1.1,0,2.05-0.05,2.81-0.14c0.75-0.07,1.53-0.24,2.33-0.48
		c0.82-0.23,1.42-0.62,1.85-1.18C294.87,468.1,295.07,467.4,295.07,466.55z"/>
	<path class="st1" d="M334.98,442.74v23.86c0,3.55-0.96,6.01-2.88,7.39s-4.71,2.07-8.4,2.07c-2.2,0-4.44-0.16-6.81-0.5v-5.78
		c2.47,0.45,4.57,0.68,6.2,0.68c2.67,0,3.98-1.21,3.98-3.61v-24.11H334.98z"/>
	<path class="st1" d="M377.61,475.56h-25.53v-32.82h25.03v5.6h-17.14v7.54h15.47v5.62h-15.47v8.44h17.64V475.56z"/>
	<path class="st1" d="M417.56,474.95c-3.72,0.74-7.25,1.11-10.61,1.11c-1.35,0-2.63-0.05-3.82-0.18c-1.19-0.12-2.52-0.37-4-0.76
		c-1.46-0.39-2.7-0.91-3.73-1.56c-1.03-0.67-1.9-1.59-2.61-2.78c-0.69-1.2-1.05-2.61-1.05-4.23v-14.41c0-6.61,5.07-9.91,15.22-9.91
		c2.49,0,5.96,0.37,10.42,1.12v5.91c-4.02-0.95-7.45-1.42-10.31-1.42c-1.16,0-2.1,0.04-2.81,0.11c-0.73,0.06-1.49,0.24-2.28,0.51
		c-0.8,0.27-1.39,0.7-1.78,1.28c-0.39,0.6-0.59,1.37-0.59,2.31V466c0,2.97,2.72,4.46,8.16,4.46c2.38,0,5.65-0.5,9.8-1.48v5.97
		H417.56z"/>
	<path class="st1" d="M458.28,448.34h-10.06v27.22h-7.88v-27.22H430.2v-5.6h28.07L458.28,448.34L458.28,448.34z"/>
	<path class="st1" d="M523.97,473.95c-1.69,0.6-3.84,1.1-6.44,1.51c-2.63,0.41-5.03,0.6-7.22,0.6c-1.81,0-3.47-0.07-4.94-0.23
		c-1.46-0.14-2.92-0.43-4.39-0.85c-1.48-0.42-2.68-0.98-3.68-1.63c-1-0.68-1.8-1.6-2.42-2.74c-0.6-1.14-0.91-2.49-0.91-4.05V452.9
		c0-1.72,0.36-3.24,1.07-4.55c0.71-1.32,1.6-2.35,2.68-3.08c1.07-0.75,2.38-1.37,3.89-1.85c1.51-0.49,2.97-0.81,4.37-0.96
		c1.4-0.16,2.88-0.23,4.43-0.23c4.64,0,9.1,0.36,13.34,1.07v5.96c-4-0.95-8.45-1.42-13.34-1.42c-5.71,0-8.55,1.66-8.55,4.97V466
		c0,1.69,0.8,2.84,2.4,3.5c1.6,0.62,3.88,0.96,6.85,0.96c1.67,0,3.43-0.27,5.32-0.76v-7.65h-5.37v-5.16h12.91L523.97,473.95
		L523.97,473.95z"/>
	<path class="st1" d="M569.7,475.56h-9.12l-8.59-12.91h-3.64v12.91h-7.89v-32.82h14.78c4.3,0,7.47,0.52,9.46,1.56
		c1.97,1.04,2.97,2.83,2.97,5.35v5.76c0,1.99-0.71,3.54-2.15,4.61c-1.42,1.08-3.2,1.76-5.33,2.03L569.7,475.56z M559.92,453.86
		v-2.33c0-1.21-0.36-2.04-1.08-2.49c-0.73-0.46-1.97-0.69-3.72-0.69h-6.77v9.1h6.77c1.85,0,3.11-0.25,3.79-0.73
		C559.58,456.23,559.92,455.28,559.92,453.86z"/>
	<path class="st1" d="M614.81,452.18v14.37c0,1.87-0.5,3.45-1.48,4.76c-0.98,1.32-2.29,2.29-3.95,2.95
		c-1.65,0.66-3.29,1.12-4.94,1.39c-1.65,0.28-3.41,0.41-5.26,0.41c-1.76,0-3.4-0.11-4.92-0.33c-1.55-0.21-3.18-0.63-4.91-1.24
		c-1.74-0.6-3.13-1.58-4.16-2.93c-1.03-1.35-1.53-3.01-1.53-5.01v-14.37c0-1.68,0.37-3.16,1.14-4.44c0.75-1.28,1.65-2.26,2.72-2.93
		c1.05-0.68,2.35-1.23,3.88-1.64c1.51-0.43,2.86-0.69,4.04-0.78c1.19-0.11,2.44-0.16,3.75-0.16c1.35,0,2.61,0.05,3.82,0.16
		c1.19,0.09,2.56,0.36,4.07,0.78c1.51,0.41,2.81,0.96,3.89,1.64c1.07,0.68,1.99,1.64,2.72,2.92
		C614.44,448.98,614.81,450.48,614.81,452.18z M606.92,466.55v-14.41c0-1.59-0.64-2.69-1.96-3.33c-1.3-0.65-3.2-0.97-5.73-0.97
		c-2.56,0-4.5,0.31-5.76,0.93c-1.3,0.63-1.94,1.76-1.94,3.37v14.41c0,0.85,0.23,1.55,0.66,2.11c0.44,0.56,1.07,0.95,1.9,1.18
		c0.82,0.24,1.62,0.41,2.38,0.48c0.75,0.09,1.69,0.14,2.79,0.14c1.12,0,2.06-0.05,2.81-0.14c0.76-0.07,1.55-0.24,2.36-0.48
		c0.8-0.23,1.42-0.62,1.85-1.18C606.71,468.1,606.92,467.4,606.92,466.55z"/>
	<path class="st1" d="M659.65,442.74v23.81c0,6.35-4.75,9.51-14.26,9.51c-9.46,0-14.19-3.17-14.19-9.51v-23.81h7.88v23.81
		c0,1.49,0.48,2.51,1.48,3.07c0.96,0.56,2.63,0.84,4.94,0.84s3.91-0.28,4.85-0.84s1.42-1.57,1.42-3.07v-23.81H659.65z"/>
	<path class="st1" d="M702.89,450.26v6.22c0,3.24-1.09,5.45-3.24,6.63c-2.15,1.17-5.71,1.77-10.67,1.77h-4.34v10.68h-7.89v-32.82
		h13.16c4.64,0,7.97,0.51,9.97,1.54C701.9,445.3,702.89,447.3,702.89,450.26z M695.27,456.24v-5.26c0-1.04-0.41-1.74-1.21-2.1
		c-0.82-0.36-2.31-0.53-4.5-0.53h-4.91v11.13h5c2.06,0,3.5-0.25,4.36-0.73C694.84,458.26,695.27,457.41,695.27,456.24z"/>
</g>
<g class="st2">
	<path d="M221.47,138.5h-44.5l-8.27,20.45h-30.37L184.78,53.7h29.32l46.61,105.24h-30.97L221.47,138.5z M212.75,116.54l-13.53-33.68
		l-13.53,33.68H212.75z"/>
</g>
<g class="st2">
	<path d="M170.2,234.12l-45.1,105.24H95.78L50.83,234.12H83l28.57,68.56l29.17-68.56H170.2z"/>
	<path d="M292.88,284.49h26.31v43.6c-6.01,4.31-12.93,7.62-20.75,9.92c-7.82,2.3-15.64,3.46-23.46,3.46
		c-11.03,0-20.95-2.33-29.77-6.99c-8.82-4.66-15.74-11.15-20.75-19.47c-5.01-8.32-7.52-17.74-7.52-28.27s2.5-19.95,7.52-28.27
		c5.01-8.32,11.98-14.81,20.9-19.47c8.92-4.66,18.99-6.99,30.22-6.99c9.82,0,18.64,1.65,26.46,4.96s14.33,8.07,19.54,14.28
		l-18.94,17.14c-7.12-7.82-15.64-11.73-25.56-11.73c-9.02,0-16.29,2.73-21.8,8.19c-5.51,5.46-8.27,12.76-8.27,21.88
		c0,5.81,1.25,11,3.76,15.56c2.5,4.56,6.01,8.12,10.52,10.67c4.51,2.56,9.67,3.83,15.49,3.83c5.71,0,11.07-1.15,16.09-3.46V284.49z"
		/>
</g>
<circle cx="193.68" cy="205.4" r="2.8"/>
<circle class="st3" cx="193.77" cy="212.77" r="127.57"/>
</svg>
