<?xml version="1.0" encoding="utf-8"?>
<!-- Generator: Adobe Illustrator 23.0.1, SVG Export Plug-In . SVG Version: 6.00 Build 0)  -->
<svg version="1.1" id="Слой_1" xmlns="http://www.w3.org/2000/svg" xmlns:xlink="http://www.w3.org/1999/xlink" x="0px" y="0px"
	 viewBox="0 0 384.88 397.39" style="enable-background:new 0 0 384.88 397.39;" xml:space="preserve">
<style type="text/css">
	.st0{display:none;}
	.st1{display:inline;}
	.st2{enable-background:new    ;}
	.st3{fill:none;stroke:#CCCCCC;stroke-width:0.7087;stroke-miterlimit:10;}
	.st4{fill:grey;stroke:#808080;stroke-width:0.7087;stroke-miterlimit:10;}
</style>
<g class="st0">
	<path class="st1" d="M212.96,450.26v6.22c0,3.24-1.09,5.45-3.24,6.63c-2.15,1.17-5.71,1.77-10.67,1.77h-4.36v10.68h-7.88v-32.82
		h13.14c4.66,0,7.98,0.51,9.99,1.54C211.97,445.3,212.96,447.3,212.96,450.26z M205.34,456.24v-5.26c0-1.04-0.41-1.74-1.23-2.1
		c-0.8-0.36-2.31-0.53-4.5-0.53h-4.91v11.13h5.01c2.06,0,3.5-0.25,4.34-0.73C204.91,458.26,205.34,457.41,205.34,456.24z"/>
	<path class="st1" d="M257.87,475.56h-9.1l-8.59-12.91h-3.66v12.91h-7.88v-32.82h14.76c4.32,0,7.49,0.52,9.48,1.56
		c1.97,1.04,2.99,2.83,2.99,5.35v5.76c0,1.99-0.73,3.54-2.17,4.61c-1.42,1.08-3.2,1.76-5.33,2.03L257.87,475.56z M248.11,453.86
		v-2.33c0-1.21-0.36-2.04-1.1-2.49c-0.71-0.46-1.96-0.69-3.7-0.69h-6.79v9.1h6.79c1.85,0,3.11-0.25,3.79-0.73
		C247.78,456.23,248.11,455.28,248.11,453.86z"/>
	<path class="st1" d="M302.96,452.18v14.37c0,1.87-0.48,3.45-1.46,4.76c-0.98,1.32-2.29,2.29-3.95,2.95
		c-1.65,0.66-3.31,1.12-4.96,1.39c-1.65,0.28-3.38,0.41-5.25,0.41c-1.74,0-3.4-0.11-4.92-0.33c-1.53-0.21-3.16-0.63-4.91-1.24
		c-1.74-0.6-3.13-1.58-4.14-2.93c-1.03-1.35-1.55-3.01-1.55-5.01v-14.37c0-1.68,0.39-3.16,1.14-4.44c0.76-1.28,1.67-2.26,2.74-2.93
		s2.35-1.23,3.86-1.64c1.51-0.43,2.86-0.69,4.05-0.78c1.17-0.11,2.42-0.16,3.73-0.16c1.35,0,2.63,0.05,3.81,0.16
		c1.19,0.09,2.56,0.36,4.07,0.78c1.51,0.41,2.83,0.96,3.89,1.64c1.07,0.68,1.99,1.64,2.74,2.92
		C302.61,448.98,302.96,450.48,302.96,452.18z M295.07,466.55v-14.41c0-1.59-0.64-2.69-1.94-3.33c-1.3-0.65-3.2-0.97-5.72-0.97
		c-2.56,0-4.48,0.31-5.76,0.93c-1.28,0.63-1.92,1.76-1.92,3.37v14.41c0,0.85,0.21,1.55,0.66,2.11c0.44,0.56,1.07,0.95,1.88,1.18
		c0.84,0.24,1.64,0.41,2.38,0.48c0.76,0.09,1.69,0.14,2.81,0.14c1.1,0,2.05-0.05,2.81-0.14c0.75-0.07,1.53-0.24,2.33-0.48
		c0.82-0.23,1.42-0.62,1.85-1.18C294.87,468.1,295.07,467.4,295.07,466.55z"/>
	<path class="st1" d="M334.98,442.74v23.86c0,3.55-0.96,6.01-2.88,7.39s-4.71,2.07-8.4,2.07c-2.2,0-4.44-0.16-6.81-0.5v-5.78
		c2.47,0.45,4.57,0.68,6.2,0.68c2.67,0,3.98-1.21,3.98-3.61v-24.11H334.98z"/>
	<path class="st1" d="M377.61,475.56h-25.53v-32.82h25.03v5.6h-17.14v7.54h15.47v5.62h-15.47v8.44h17.64V475.56z"/>
	<path class="st1" d="M417.56,474.95c-3.72,0.74-7.25,1.11-10.61,1.11c-1.35,0-2.63-0.05-3.82-0.18c-1.19-0.12-2.52-0.37-4-0.76
		c-1.46-0.39-2.7-0.91-3.73-1.56c-1.03-0.67-1.9-1.59-2.61-2.78c-0.69-1.2-1.05-2.61-1.05-4.23v-14.41c0-6.61,5.07-9.91,15.22-9.91
		c2.49,0,5.96,0.37,10.42,1.12v5.91c-4.02-0.95-7.45-1.42-10.31-1.42c-1.16,0-2.1,0.04-2.81,0.11c-0.73,0.06-1.49,0.24-2.28,0.51
		c-0.8,0.27-1.39,0.7-1.78,1.28c-0.39,0.6-0.59,1.37-0.59,2.31V466c0,2.97,2.72,4.46,8.16,4.46c2.38,0,5.65-0.5,9.8-1.48v5.97
		H417.56z"/>
	<path class="st1" d="M458.28,448.34h-10.06v27.22h-7.88v-27.22H430.2v-5.6h28.07L458.28,448.34L458.28,448.34z"/>
	<path class="st1" d="M523.97,473.95c-1.69,0.6-3.84,1.1-6.44,1.51c-2.63,0.41-5.03,0.6-7.22,0.6c-1.81,0-3.47-0.07-4.94-0.23
		c-1.46-0.14-2.92-0.43-4.39-0.85c-1.48-0.42-2.68-0.98-3.68-1.63c-1-0.68-1.8-1.6-2.42-2.74c-0.6-1.14-0.91-2.49-0.91-4.05V452.9
		c0-1.72,0.36-3.24,1.07-4.55c0.71-1.32,1.6-2.35,2.68-3.08c1.07-0.75,2.38-1.37,3.89-1.85c1.51-0.49,2.97-0.81,4.37-0.96
		c1.4-0.16,2.88-0.23,4.43-0.23c4.64,0,9.1,0.36,13.34,1.07v5.96c-4-0.95-8.45-1.42-13.34-1.42c-5.71,0-8.55,1.66-8.55,4.97V466
		c0,1.69,0.8,2.84,2.4,3.5c1.6,0.62,3.88,0.96,6.85,0.96c1.67,0,3.43-0.27,5.32-0.76v-7.65h-5.37v-5.16h12.91L523.97,473.95
		L523.97,473.95z"/>
	<path class="st1" d="M569.7,475.56h-9.12l-8.59-12.91h-3.64v12.91h-7.89v-32.82h14.78c4.3,0,7.47,0.52,9.46,1.56
		c1.97,1.04,2.97,2.83,2.97,5.35v5.76c0,1.99-0.71,3.54-2.15,4.61c-1.42,1.08-3.2,1.76-5.33,2.03L569.7,475.56z M559.92,453.86
		v-2.33c0-1.21-0.36-2.04-1.08-2.49c-0.73-0.46-1.97-0.69-3.72-0.69h-6.77v9.1h6.77c1.85,0,3.11-0.25,3.79-0.73
		C559.58,456.23,559.92,455.28,559.92,453.86z"/>
	<path class="st1" d="M614.81,452.18v14.37c0,1.87-0.5,3.45-1.48,4.76c-0.98,1.32-2.29,2.29-3.95,2.95
		c-1.65,0.66-3.29,1.12-4.94,1.39c-1.65,0.28-3.41,0.41-5.26,0.41c-1.76,0-3.4-0.11-4.92-0.33c-1.55-0.21-3.18-0.63-4.91-1.24
		c-1.74-0.6-3.13-1.58-4.16-2.93c-1.03-1.35-1.53-3.01-1.53-5.01v-14.37c0-1.68,0.37-3.16,1.14-4.44c0.75-1.28,1.65-2.26,2.72-2.93
		c1.05-0.68,2.35-1.23,3.88-1.64c1.51-0.43,2.86-0.69,4.04-0.78c1.19-0.11,2.44-0.16,3.75-0.16c1.35,0,2.61,0.05,3.82,0.16
		c1.19,0.09,2.56,0.36,4.07,0.78c1.51,0.41,2.81,0.96,3.89,1.64c1.07,0.68,1.99,1.64,2.72,2.92
		C614.44,448.98,614.81,450.48,614.81,452.18z M606.92,466.55v-14.41c0-1.59-0.64-2.69-1.96-3.33c-1.3-0.65-3.2-0.97-5.73-0.97
		c-2.56,0-4.5,0.31-5.76,0.93c-1.3,0.63-1.94,1.76-1.94,3.37v14.41c0,0.85,0.23,1.55,0.66,2.11c0.44,0.56,1.07,0.95,1.9,1.18
		c0.82,0.24,1.62,0.41,2.38,0.48c0.75,0.09,1.69,0.14,2.79,0.14c1.12,0,2.06-0.05,2.81-0.14c0.76-0.07,1.55-0.24,2.36-0.48
		c0.8-0.23,1.42-0.62,1.85-1.18C606.71,468.1,606.92,467.4,606.92,466.55z"/>
	<path class="st1" d="M659.65,442.74v23.81c0,6.35-4.75,9.51-14.26,9.51c-9.46,0-14.19-3.17-14.19-9.51v-23.81h7.88v23.81
		c0,1.49,0.48,2.51,1.48,3.07c0.96,0.56,2.63,0.84,4.94,0.84s3.91-0.28,4.85-0.84s1.42-1.57,1.42-3.07v-23.81H659.65z"/>
	<path class="st1" d="M702.89,450.26v6.22c0,3.24-1.09,5.45-3.24,6.63c-2.15,1.17-5.71,1.77-10.67,1.77h-4.34v10.68h-7.89v-32.82
		h13.16c4.64,0,7.97,0.51,9.97,1.54C701.9,445.3,702.89,447.3,702.89,450.26z M695.27,456.24v-5.26c0-1.04-0.41-1.74-1.21-2.1
		c-0.82-0.36-2.31-0.53-4.5-0.53h-4.91v11.13h5c2.06,0,3.5-0.25,4.36-0.73C694.84,458.26,695.27,457.41,695.27,456.24z"/>
</g>
<g class="st2">
	<path d="M139.75,95.72h-31.92l-5.93,14.67H80.11l33.33-75.5h21.03l33.43,75.5h-22.22L139.75,95.72z M133.5,79.97l-9.71-24.16
		l-9.71,24.16H133.5z"/>
	<path d="M323.74,34.89l-24.48,75.5H276.4l-14.45-45.94l-15.1,45.94h-22.87l-24.48-75.5h22l15.21,48.21l15.96-48.21h19.63
		l15.21,48.64l15.85-48.64H323.74z"/>
</g>
<g class="st2">
	<path d="M139.75,225.14h-31.92l-5.93,14.67H80.11l33.33-75.5h21.03l33.43,75.5h-22.22L139.75,225.14z M133.5,209.39l-9.71-24.16
		l-9.71,24.16H133.5z"/>
	<path d="M269.71,219.75h-11.65v20.06h-21.36v-75.5h34.51c6.83,0,12.76,1.13,17.8,3.4c5.03,2.26,8.91,5.5,11.65,9.71
		s4.1,9.15,4.1,14.83c0,5.46-1.28,10.23-3.83,14.29c-2.55,4.06-6.2,7.24-10.95,9.54l16.29,23.73H283.4L269.71,219.75z
		 M279.85,184.05c-2.23-1.94-5.54-2.91-9.92-2.91h-11.86v22.11h11.86c4.38,0,7.69-0.95,9.92-2.86c2.23-1.9,3.34-4.62,3.34-8.14
		C283.19,188.72,282.07,185.99,279.85,184.05z"/>
</g>
<g class="st2">
	<path d="M89.17,293.73h35.7c8.27,0,15.6,1.55,22,4.64c6.4,3.09,11.36,7.48,14.88,13.16c3.52,5.68,5.28,12.33,5.28,19.95
		s-1.76,14.27-5.28,19.95c-3.52,5.68-8.48,10.07-14.88,13.16c-6.4,3.09-13.73,4.64-22,4.64h-35.7V293.73z M124.01,352.19
		c6.47,0,11.66-1.83,15.58-5.5c3.92-3.67,5.88-8.74,5.88-15.21c0-6.47-1.96-11.54-5.88-15.21c-3.92-3.67-9.11-5.5-15.58-5.5h-13.48
		v41.42H124.01z"/>
	<path d="M249.75,368.47c-5.75-1.51-10.43-3.52-14.02-6.04l7.01-15.75c3.38,2.23,7.3,4.03,11.76,5.39
		c4.46,1.37,8.84,2.05,13.16,2.05c8.2,0,12.29-2.05,12.29-6.15c0-2.16-1.17-3.76-3.51-4.8c-2.34-1.04-6.09-2.14-11.27-3.29
		c-5.68-1.22-10.43-2.54-14.24-3.94c-3.81-1.4-7.08-3.65-9.81-6.74c-2.73-3.09-4.1-7.26-4.1-12.51c0-4.6,1.26-8.75,3.77-12.46
		c2.52-3.7,6.27-6.63,11.27-8.79c5-2.16,11.13-3.24,18.39-3.24c4.96,0,9.85,0.56,14.67,1.67c4.82,1.12,9.06,2.75,12.73,4.91
		l-6.58,15.85c-7.19-3.88-14.17-5.82-20.92-5.82c-4.24,0-7.33,0.63-9.28,1.89c-1.94,1.26-2.91,2.9-2.91,4.91
		c0,2.01,1.15,3.52,3.45,4.53c2.3,1.01,6,2.05,11.11,3.13c5.75,1.22,10.52,2.54,14.29,3.94c3.77,1.4,7.05,3.63,9.81,6.69
		c2.77,3.06,4.15,7.21,4.15,12.46c0,4.53-1.26,8.63-3.77,12.29c-2.52,3.67-6.29,6.6-11.32,8.79c-5.03,2.19-11.15,3.29-18.33,3.29
		C261.44,370.74,255.51,369.98,249.75,368.47z"/>
</g>
<line class="st3" x1="19.47" y1="28.86" x2="364.6" y2="373.99"/>
<circle class="st4" cx="183.36" cy="192.42" r="2.8"/>
<circle class="st4" cx="19.47" cy="28.86" r="2.8"/>
<circle class="st4" cx="364.6" cy="373.99" r="2.8"/>
</svg>
