<?xml version="1.0" encoding="utf-8"?>
<!-- Generator: Adobe Illustrator 23.0.1, SVG Export Plug-In . SVG Version: 6.00 Build 0)  -->
<svg version="1.1" id="Слой_1" xmlns="http://www.w3.org/2000/svg" xmlns:xlink="http://www.w3.org/1999/xlink" x="0px" y="0px"
	 viewBox="0 0 128.18 60.87" style="enable-background:new 0 0 128.18 60.87;" xml:space="preserve">
<style type="text/css">
	.st0{display:none;}
	.st1{display:inline;}
</style>
<g class="st0">
	<path class="st1" d="M104.18,206.09v6.22c0,3.24-1.09,5.45-3.24,6.63c-2.15,1.17-5.71,1.77-10.67,1.77h-4.36v10.68h-7.88v-32.82
		h13.14c4.66,0,7.98,0.51,9.99,1.54C103.19,201.13,104.18,203.13,104.18,206.09z M96.55,212.06v-5.26c0-1.04-0.41-1.74-1.23-2.1
		c-0.8-0.36-2.31-0.53-4.5-0.53h-4.91v11.13h5.01c2.06,0,3.5-0.25,4.34-0.73C96.13,214.08,96.55,213.24,96.55,212.06z"/>
	<path class="st1" d="M149.09,231.39h-9.1l-8.59-12.91h-3.66v12.91h-7.88v-32.82h14.76c4.32,0,7.49,0.52,9.48,1.56
		c1.97,1.04,2.99,2.83,2.99,5.35v5.76c0,1.99-0.73,3.54-2.17,4.61c-1.42,1.08-3.2,1.76-5.33,2.03L149.09,231.39z M139.33,209.68
		v-2.33c0-1.21-0.36-2.04-1.1-2.49c-0.71-0.46-1.96-0.69-3.7-0.69h-6.79v9.1h6.79c1.85,0,3.11-0.25,3.79-0.73
		C138.99,212.06,139.33,211.1,139.33,209.68z"/>
	<path class="st1" d="M194.18,208.01v14.37c0,1.87-0.48,3.45-1.46,4.76c-0.98,1.32-2.29,2.29-3.95,2.95
		c-1.65,0.66-3.31,1.12-4.96,1.39c-1.65,0.28-3.38,0.41-5.25,0.41c-1.74,0-3.4-0.11-4.92-0.33c-1.53-0.21-3.16-0.63-4.91-1.24
		c-1.74-0.6-3.13-1.58-4.14-2.93c-1.03-1.35-1.55-3.01-1.55-5.01v-14.37c0-1.68,0.39-3.16,1.14-4.44c0.76-1.28,1.67-2.26,2.74-2.93
		c1.07-0.68,2.35-1.23,3.86-1.64c1.51-0.43,2.86-0.69,4.05-0.78c1.17-0.11,2.42-0.16,3.73-0.16c1.35,0,2.63,0.05,3.81,0.16
		c1.19,0.09,2.56,0.36,4.07,0.78c1.51,0.41,2.83,0.96,3.89,1.64c1.07,0.68,1.99,1.64,2.74,2.92
		C193.82,204.81,194.18,206.3,194.18,208.01z M186.29,222.38v-14.41c0-1.59-0.64-2.69-1.94-3.33c-1.3-0.65-3.2-0.97-5.72-0.97
		c-2.56,0-4.48,0.31-5.76,0.93c-1.28,0.63-1.92,1.76-1.92,3.37v14.41c0,0.85,0.21,1.55,0.66,2.11c0.44,0.56,1.07,0.95,1.88,1.18
		c0.84,0.24,1.64,0.41,2.38,0.48c0.76,0.09,1.69,0.14,2.81,0.14c1.1,0,2.05-0.05,2.81-0.14c0.75-0.07,1.53-0.24,2.33-0.48
		c0.82-0.23,1.42-0.62,1.85-1.18C186.09,223.92,186.29,223.23,186.29,222.38z"/>
	<path class="st1" d="M226.19,198.57v23.86c0,3.55-0.96,6.01-2.88,7.39c-1.92,1.38-4.71,2.07-8.4,2.07c-2.2,0-4.44-0.16-6.81-0.5
		v-5.78c2.47,0.45,4.57,0.68,6.2,0.68c2.67,0,3.98-1.21,3.98-3.61v-24.11H226.19z"/>
	<path class="st1" d="M268.83,231.39H243.3v-32.82h25.03v5.6h-17.14v7.54h15.47v5.62h-15.47v8.44h17.64V231.39z"/>
	<path class="st1" d="M308.78,230.78c-3.72,0.74-7.25,1.11-10.61,1.11c-1.35,0-2.63-0.05-3.82-0.18c-1.19-0.12-2.52-0.37-4-0.76
		c-1.46-0.39-2.7-0.91-3.73-1.56c-1.03-0.67-1.9-1.59-2.61-2.78c-0.69-1.2-1.05-2.61-1.05-4.23v-14.41c0-6.61,5.07-9.91,15.22-9.91
		c2.49,0,5.96,0.37,10.42,1.12v5.91c-4.02-0.95-7.45-1.42-10.31-1.42c-1.16,0-2.1,0.04-2.81,0.11c-0.73,0.06-1.49,0.24-2.28,0.51
		c-0.8,0.27-1.39,0.7-1.78,1.28c-0.39,0.6-0.59,1.37-0.59,2.31v13.96c0,2.97,2.72,4.46,8.16,4.46c2.38,0,5.65-0.5,9.8-1.48V230.78z"
		/>
	<path class="st1" d="M349.49,204.17h-10.06v27.22h-7.88v-27.22h-10.13v-5.6h28.07V204.17z"/>
	<path class="st1" d="M415.19,229.77c-1.69,0.6-3.84,1.1-6.44,1.51c-2.63,0.41-5.03,0.6-7.22,0.6c-1.81,0-3.47-0.07-4.94-0.23
		c-1.46-0.14-2.92-0.43-4.39-0.85c-1.48-0.42-2.68-0.98-3.68-1.63c-1-0.68-1.8-1.6-2.42-2.74c-0.6-1.14-0.91-2.49-0.91-4.05v-13.65
		c0-1.72,0.36-3.24,1.07-4.55c0.71-1.32,1.6-2.35,2.68-3.08c1.07-0.75,2.38-1.37,3.89-1.85c1.51-0.49,2.97-0.81,4.37-0.96
		c1.4-0.16,2.88-0.23,4.43-0.23c4.64,0,9.1,0.36,13.34,1.07v5.96c-4-0.95-8.45-1.42-13.34-1.42c-5.71,0-8.55,1.66-8.55,4.97v13.19
		c0,1.69,0.8,2.84,2.4,3.5c1.6,0.62,3.88,0.96,6.85,0.96c1.67,0,3.43-0.27,5.32-0.76v-7.65h-5.37v-5.16h12.91V229.77z"/>
	<path class="st1" d="M460.92,231.39h-9.12l-8.59-12.91h-3.64v12.91h-7.89v-32.82h14.78c4.3,0,7.47,0.52,9.46,1.56
		c1.97,1.04,2.97,2.83,2.97,5.35v5.76c0,1.99-0.71,3.54-2.15,4.61c-1.42,1.08-3.2,1.76-5.33,2.03L460.92,231.39z M451.14,209.68
		v-2.33c0-1.21-0.36-2.04-1.08-2.49c-0.73-0.46-1.97-0.69-3.72-0.69h-6.77v9.1h6.77c1.85,0,3.11-0.25,3.79-0.73
		C450.8,212.06,451.14,211.1,451.14,209.68z"/>
	<path class="st1" d="M506.03,208.01v14.37c0,1.87-0.5,3.45-1.48,4.76c-0.98,1.32-2.29,2.29-3.95,2.95
		c-1.65,0.66-3.29,1.12-4.94,1.39c-1.65,0.28-3.41,0.41-5.26,0.41c-1.76,0-3.4-0.11-4.92-0.33c-1.55-0.21-3.18-0.63-4.91-1.24
		c-1.74-0.6-3.13-1.58-4.16-2.93c-1.03-1.35-1.53-3.01-1.53-5.01v-14.37c0-1.68,0.37-3.16,1.14-4.44c0.75-1.28,1.65-2.26,2.72-2.93
		c1.05-0.68,2.35-1.23,3.88-1.64c1.51-0.43,2.86-0.69,4.04-0.78c1.19-0.11,2.44-0.16,3.75-0.16c1.35,0,2.61,0.05,3.82,0.16
		c1.19,0.09,2.56,0.36,4.07,0.78c1.51,0.41,2.81,0.96,3.89,1.64c1.07,0.68,1.99,1.64,2.72,2.92
		C505.66,204.81,506.03,206.3,506.03,208.01z M498.14,222.38v-14.41c0-1.59-0.64-2.69-1.96-3.33c-1.3-0.65-3.2-0.97-5.73-0.97
		c-2.56,0-4.5,0.31-5.76,0.93c-1.3,0.63-1.94,1.76-1.94,3.37v14.41c0,0.85,0.23,1.55,0.66,2.11c0.44,0.56,1.07,0.95,1.9,1.18
		c0.82,0.24,1.62,0.41,2.38,0.48c0.75,0.09,1.69,0.14,2.79,0.14c1.12,0,2.06-0.05,2.81-0.14c0.76-0.07,1.55-0.24,2.36-0.48
		c0.8-0.23,1.42-0.62,1.85-1.18C497.92,223.92,498.14,223.23,498.14,222.38z"/>
	<path class="st1" d="M550.87,198.57v23.81c0,6.35-4.75,9.51-14.26,9.51c-9.46,0-14.19-3.17-14.19-9.51v-23.81h7.88v23.81
		c0,1.49,0.48,2.51,1.48,3.07c0.96,0.56,2.63,0.84,4.94,0.84c2.31,0,3.91-0.28,4.85-0.84c0.94-0.56,1.42-1.57,1.42-3.07v-23.81
		H550.87z"/>
	<path class="st1" d="M594.11,206.09v6.22c0,3.24-1.09,5.45-3.24,6.63c-2.15,1.17-5.71,1.77-10.67,1.77h-4.34v10.68h-7.89v-32.82
		h13.16c4.64,0,7.97,0.51,9.97,1.54C593.11,201.13,594.11,203.13,594.11,206.09z M586.48,212.06v-5.26c0-1.04-0.41-1.74-1.21-2.1
		c-0.82-0.36-2.31-0.53-4.5-0.53h-4.91v11.13h5c2.06,0,3.5-0.25,4.36-0.73C586.06,214.08,586.48,213.24,586.48,212.06z"/>
</g>
<g>
	<g>
		<g>
			<path d="M6.61,23.64c0-1.82,0.35-3.56,1.06-5.23c0.71-1.67,1.73-3.2,3.07-4.6c1.44-1.45,2.96-2.53,4.58-3.24
				c1.61-0.71,3.38-1.06,5.29-1.06c1.93,0,3.7,0.35,5.31,1.06c1.61,0.71,3.14,1.79,4.58,3.24c1.36,1.4,2.39,2.94,3.1,4.61
				c0.71,1.68,1.07,3.42,1.07,5.22c0,1.85-0.36,3.61-1.07,5.3c-0.71,1.68-1.75,3.22-3.1,4.6c-1.4,1.44-2.91,2.51-4.54,3.21
				c-1.63,0.7-3.41,1.05-5.35,1.05c-1.93,0-3.7-0.35-5.31-1.05c-1.61-0.7-3.13-1.77-4.56-3.21c-1.34-1.39-2.37-2.92-3.07-4.61
				C6.97,27.24,6.61,25.48,6.61,23.64 M14.72,23.64c0,3.48,0.06,5.87,0.17,7.18c0.12,1.31,0.32,2.28,0.62,2.92
				c0.43,0.99,1.05,1.7,1.85,2.14c0.8,0.43,1.89,0.65,3.25,0.65c1.38,0,2.47-0.22,3.27-0.65c0.8-0.43,1.42-1.15,1.85-2.14
				c0.31-0.69,0.53-1.73,0.65-3.12c0.12-1.38,0.18-3.71,0.18-6.99c0-3.26-0.06-5.58-0.18-6.96c-0.12-1.39-0.34-2.42-0.65-3.12
				c-0.43-0.99-1.05-1.7-1.85-2.14c-0.8-0.43-1.89-0.65-3.27-0.65c-1.37,0-2.45,0.22-3.25,0.65c-0.8,0.44-1.42,1.15-1.85,2.14
				c-0.3,0.64-0.51,1.61-0.62,2.92C14.78,17.8,14.72,20.18,14.72,23.64"/>
			<path d="M39.02,35.82h3.3V11.3h-3.3v-1.24h14.03c3.82,0,6.65,0.57,8.51,1.7c1.86,1.13,2.79,2.88,2.79,5.22
				c0,2.46-0.96,4.3-2.88,5.53c-1.92,1.23-4.8,1.84-8.65,1.84h-3.67v11.47h3.85v1.34H39.02V35.82z M49.16,11.3v11.97h3.81
				c1.53,0,2.55-0.33,3.05-0.98c0.49-0.65,0.74-2.4,0.74-5.23c0-2.57-0.25-4.17-0.74-4.81c-0.5-0.64-1.57-0.96-3.23-0.96H49.16z"/>
			<path d="M67.47,37.17v-1.34h3.3V11.3h-2.83v-1.24h22.61l0.08,7.13h-1.37c-0.92-2.31-1.86-3.87-2.81-4.67
				c-0.95-0.81-2.34-1.21-4.15-1.21h-4.68v11.14c0.11,0.01,0.23,0.02,0.38,0.03c0.14,0.01,0.34,0.01,0.58,0.01
				c1.48,0,2.6-0.39,3.36-1.17c0.76-0.78,1.26-2.05,1.49-3.8h1.36v11.57h-1.36c-0.15-1.87-0.61-3.22-1.39-4.03
				c-0.77-0.81-1.98-1.22-3.62-1.22h-0.79v12h4.54c2.24,0,3.99-0.59,5.25-1.77c1.26-1.18,2.25-3.16,2.97-5.93h1.28l-0.29,9.04H67.47
				z"/>
			<path d="M94.77,37.17v-1.34h2c0.57,0,1.01-0.08,1.32-0.25c0.31-0.16,0.72-0.62,1.22-1.36l6.25-9.18L97.19,11.3h-2.42v-1.24h13.18
				v1.24h-2.79l4.66,7.92l4.6-6.84c0.01-0.03,0.03-0.06,0.06-0.1c0.12-0.18,0.18-0.33,0.18-0.47c0-0.18-0.07-0.31-0.2-0.39
				c-0.14-0.08-0.35-0.12-0.63-0.12h-2.59v-1.24h9.23v1.24h-1.79c-0.88,0-1.49,0.08-1.82,0.25c-0.33,0.17-0.7,0.55-1.11,1.13
				l-5.21,7.56l9.39,15.58h2.22v1.34h-13.05v-1.34h2.95l-5.76-9.55l-5.13,7.8c-0.11,0.16-0.2,0.35-0.27,0.55
				c-0.07,0.2-0.1,0.37-0.1,0.51c0,0.22,0.09,0.39,0.27,0.51c0.18,0.12,0.43,0.18,0.77,0.18h2.34v1.34H94.77z"/>
			<path d="M14.79,49.35c0,0.8-0.13,1.49-0.4,2.08c-0.27,0.59-0.65,1.05-1.14,1.36c-0.49,0.31-1.06,0.47-1.72,0.47
				c-0.64,0-1.21-0.16-1.7-0.47c-0.49-0.31-0.88-0.76-1.15-1.35c-0.27-0.58-0.42-1.26-0.42-2.02v-0.59c0-0.78,0.14-1.47,0.41-2.07
				c0.27-0.6,0.66-1.06,1.15-1.37c0.5-0.32,1.07-0.48,1.7-0.48c0.65,0,1.22,0.16,1.72,0.47c0.5,0.31,0.88,0.77,1.15,1.37
				c0.27,0.6,0.4,1.29,0.4,2.09V49.35z M13.72,48.83c0-0.96-0.19-1.7-0.58-2.22c-0.39-0.52-0.93-0.77-1.62-0.77
				c-0.68,0-1.21,0.26-1.6,0.77c-0.39,0.51-0.59,1.23-0.6,2.15v0.6c0,0.94,0.2,1.67,0.59,2.2c0.39,0.53,0.93,0.8,1.62,0.8
				c0.69,0,1.23-0.25,1.61-0.76c0.38-0.5,0.57-1.23,0.58-2.17V48.83z"/>
			<path d="M17.58,49.97v3.18h-1.07v-8.12h3c0.89,0,1.59,0.23,2.09,0.68c0.5,0.45,0.76,1.05,0.76,1.8c0,0.79-0.25,1.4-0.74,1.82
				c-0.49,0.43-1.2,0.64-2.12,0.64H17.58z M17.58,49.09h1.93c0.57,0,1.01-0.14,1.32-0.4c0.31-0.27,0.46-0.66,0.46-1.17
				c0-0.48-0.15-0.87-0.46-1.16c-0.3-0.29-0.72-0.44-1.26-0.45h-1.99V49.09z"/>
			<polygon points="28.42,49.4 24.9,49.4 24.9,52.27 28.99,52.27 28.99,53.15 23.83,53.15 23.83,45.03 28.94,45.03 28.94,45.9 
				24.9,45.9 24.9,48.52 28.42,48.52 			"/>
			<path d="M33.42,49.86h-1.91v3.29h-1.08v-8.12h2.69c0.91,0,1.62,0.21,2.11,0.62c0.49,0.42,0.74,1.02,0.74,1.82
				c0,0.51-0.14,0.95-0.41,1.32c-0.27,0.37-0.65,0.66-1.14,0.84l1.91,3.45v0.07h-1.15L33.42,49.86z M31.51,48.99h1.65
				c0.53,0,0.95-0.14,1.27-0.41c0.31-0.28,0.47-0.64,0.47-1.11c0-0.5-0.15-0.89-0.45-1.16c-0.3-0.27-0.73-0.4-1.3-0.41h-1.64V48.99z
				"/>
			<path d="M42.08,51.02h-3.4l-0.76,2.12H36.8l3.1-8.12h0.94l3.11,8.12h-1.1L42.08,51.02z M39,50.15h2.76l-1.38-3.8L39,50.15z"/>
			<polygon points="50.05,45.9 47.44,45.9 47.44,53.15 46.38,53.15 46.38,45.9 43.77,45.9 43.77,45.03 50.05,45.03 			"/>
			<rect x="51.45" y="45.03" width="1.07" height="8.12"/>
			<polygon points="60.84,53.15 59.76,53.15 55.67,46.89 55.67,53.15 54.59,53.15 54.59,45.03 55.67,45.03 59.77,51.31 59.77,45.03 
				60.84,45.03 			"/>
			<path d="M68.85,52.08c-0.28,0.39-0.66,0.69-1.15,0.88c-0.49,0.2-1.07,0.29-1.72,0.29c-0.66,0-1.25-0.15-1.76-0.47
				c-0.51-0.31-0.91-0.75-1.19-1.32c-0.28-0.57-0.43-1.24-0.43-1.99v-0.71c0-1.22,0.29-2.17,0.86-2.85
				c0.57-0.67,1.37-1.01,2.41-1.01c0.85,0,1.53,0.22,2.05,0.65c0.52,0.43,0.83,1.05,0.95,1.84h-1.07c-0.2-1.08-0.84-1.62-1.92-1.62
				c-0.72,0-1.26,0.25-1.63,0.76c-0.37,0.5-0.56,1.23-0.56,2.19v0.66c0,0.91,0.21,1.64,0.62,2.17c0.42,0.54,0.98,0.81,1.69,0.81
				c0.4,0,0.75-0.04,1.05-0.13c0.3-0.09,0.55-0.24,0.75-0.45v-1.82h-1.88v-0.87h2.95V52.08z"/>
			<polygon points="78.29,49.4 74.76,49.4 74.76,52.27 78.85,52.27 78.85,53.15 73.69,53.15 73.69,45.03 78.8,45.03 78.8,45.9 
				74.76,45.9 74.76,48.52 78.29,48.52 			"/>
			<polygon points="82.96,48.14 84.9,45.03 86.16,45.03 83.59,49.05 86.22,53.15 84.95,53.15 82.96,49.98 80.95,53.15 79.68,53.15 
				82.31,49.05 79.74,45.03 81,45.03 			"/>
			<path d="M88.65,49.97v3.18h-1.07v-8.12h3c0.89,0,1.59,0.23,2.09,0.68c0.5,0.45,0.76,1.05,0.76,1.8c0,0.79-0.25,1.4-0.74,1.82
				c-0.49,0.43-1.2,0.64-2.12,0.64H88.65z M88.65,49.09h1.93c0.57,0,1.01-0.14,1.32-0.4c0.31-0.27,0.46-0.66,0.46-1.17
				c0-0.48-0.15-0.87-0.46-1.16c-0.3-0.29-0.72-0.44-1.26-0.45h-1.99V49.09z"/>
			<polygon points="99.5,49.4 95.98,49.4 95.98,52.27 100.07,52.27 100.07,53.15 94.91,53.15 94.91,45.03 100.01,45.03 100.01,45.9 
				95.98,45.9 95.98,48.52 99.5,48.52 			"/>
			<polygon points="107.76,53.15 106.68,53.15 102.59,46.89 102.59,53.15 101.51,53.15 101.51,45.03 102.59,45.03 106.69,51.31 
				106.69,45.03 107.76,45.03 			"/>
			<path d="M112.17,49.53c-0.92-0.27-1.59-0.59-2.01-0.97c-0.42-0.38-0.63-0.86-0.63-1.43c0-0.64,0.26-1.17,0.77-1.59
				c0.51-0.42,1.18-0.63,1.99-0.63c0.56,0,1.06,0.11,1.49,0.32c0.44,0.21,0.78,0.51,1.01,0.89c0.24,0.38,0.36,0.79,0.36,1.24h-1.08
				c0-0.49-0.16-0.88-0.47-1.16c-0.31-0.28-0.75-0.42-1.32-0.42c-0.53,0-0.94,0.12-1.24,0.35c-0.29,0.23-0.44,0.56-0.44,0.97
				c0,0.33,0.14,0.61,0.42,0.84c0.28,0.23,0.76,0.44,1.43,0.63c0.68,0.19,1.2,0.4,1.58,0.63c0.38,0.23,0.66,0.49,0.85,0.8
				c0.18,0.3,0.28,0.66,0.28,1.08c0,0.66-0.26,1.19-0.77,1.58c-0.51,0.4-1.2,0.59-2.06,0.59c-0.56,0-1.08-0.11-1.56-0.32
				c-0.48-0.21-0.86-0.51-1.12-0.88c-0.26-0.37-0.39-0.79-0.39-1.27h1.08c0,0.49,0.18,0.88,0.54,1.16c0.36,0.28,0.85,0.43,1.46,0.43
				c0.57,0,1-0.12,1.3-0.35c0.3-0.23,0.45-0.55,0.45-0.94c0-0.4-0.14-0.71-0.42-0.92C113.41,49.96,112.9,49.74,112.17,49.53"/>
			<polygon points="121.26,49.4 117.74,49.4 117.74,52.27 121.83,52.27 121.83,53.15 116.67,53.15 116.67,45.03 121.77,45.03 
				121.77,45.9 117.74,45.9 117.74,48.52 121.26,48.52 			"/>
		</g>
	</g>
</g>
</svg>
