<?xml version="1.0" encoding="utf-8"?>
<!-- Generator: Adobe Illustrator 23.0.1, SVG Export Plug-In . SVG Version: 6.00 Build 0)  -->
<svg version="1.1" id="Слой_1" xmlns="http://www.w3.org/2000/svg" xmlns:xlink="http://www.w3.org/1999/xlink" x="0px" y="0px"
	 viewBox="0 0 416.18 622.39" style="enable-background:new 0 0 416.18 622.39;" xml:space="preserve">
<style type="text/css">
	.st0{display:none;}
	.st1{display:inline;}
	.st2{fill:#CCCCCC;}
</style>
<g class="st0">
	<path class="st1" d="M135.88,296.87v6.22c0,3.24-1.09,5.45-3.24,6.63c-2.15,1.17-5.71,1.77-10.67,1.77h-4.36v10.68h-7.88v-32.82
		h13.14c4.66,0,7.98,0.51,9.99,1.54C134.88,291.91,135.88,293.91,135.88,296.87z M128.25,302.85v-5.26c0-1.04-0.41-1.74-1.23-2.1
		c-0.8-0.36-2.31-0.53-4.5-0.53h-4.91v11.13h5.01c2.06,0,3.5-0.25,4.34-0.73C127.82,304.86,128.25,304.02,128.25,302.85z"/>
	<path class="st1" d="M180.79,322.17h-9.1l-8.59-12.91h-3.66v12.91h-7.88v-32.82h14.76c4.32,0,7.49,0.52,9.48,1.56
		c1.97,1.04,2.99,2.83,2.99,5.35v5.76c0,1.99-0.73,3.54-2.17,4.61c-1.42,1.08-3.2,1.76-5.33,2.03L180.79,322.17z M171.03,300.46
		v-2.33c0-1.21-0.36-2.04-1.1-2.49c-0.71-0.46-1.96-0.69-3.7-0.69h-6.79v9.1h6.79c1.85,0,3.11-0.25,3.79-0.73
		C170.69,302.84,171.03,301.89,171.03,300.46z"/>
	<path class="st1" d="M225.88,298.79v14.37c0,1.87-0.48,3.45-1.46,4.76c-0.98,1.32-2.29,2.29-3.95,2.95
		c-1.65,0.66-3.31,1.12-4.96,1.39c-1.65,0.28-3.38,0.41-5.25,0.41c-1.74,0-3.4-0.11-4.92-0.33c-1.53-0.21-3.16-0.63-4.91-1.24
		c-1.74-0.6-3.13-1.58-4.14-2.93c-1.03-1.35-1.55-3.01-1.55-5.01v-14.37c0-1.68,0.39-3.16,1.14-4.44c0.76-1.28,1.67-2.26,2.74-2.93
		c1.07-0.68,2.35-1.23,3.86-1.64c1.51-0.43,2.86-0.69,4.05-0.78c1.17-0.11,2.42-0.16,3.73-0.16c1.35,0,2.63,0.05,3.81,0.16
		c1.19,0.09,2.56,0.36,4.07,0.78c1.51,0.41,2.83,0.96,3.89,1.64s1.99,1.64,2.74,2.92C225.52,295.59,225.88,297.09,225.88,298.79z
		 M217.98,313.16v-14.41c0-1.59-0.64-2.69-1.94-3.33c-1.3-0.65-3.2-0.97-5.72-0.97c-2.56,0-4.48,0.31-5.76,0.93
		c-1.28,0.63-1.92,1.76-1.92,3.37v14.41c0,0.85,0.21,1.55,0.66,2.11c0.44,0.56,1.07,0.95,1.88,1.18c0.84,0.24,1.64,0.41,2.38,0.48
		c0.76,0.09,1.69,0.14,2.81,0.14c1.1,0,2.05-0.05,2.81-0.14c0.75-0.07,1.53-0.24,2.33-0.48c0.82-0.23,1.42-0.62,1.85-1.18
		C217.79,314.71,217.98,314.01,217.98,313.16z"/>
	<path class="st1" d="M257.89,289.35v23.86c0,3.55-0.96,6.01-2.88,7.39c-1.92,1.38-4.71,2.07-8.4,2.07c-2.2,0-4.44-0.16-6.81-0.5
		v-5.78c2.47,0.45,4.57,0.68,6.2,0.68c2.67,0,3.98-1.21,3.98-3.61v-24.11H257.89z"/>
	<path class="st1" d="M300.52,322.17h-25.53v-32.82h25.03v5.6h-17.14v7.54h15.47v5.62h-15.47v8.44h17.64V322.17z"/>
	<path class="st1" d="M340.47,321.56c-3.72,0.74-7.25,1.11-10.61,1.11c-1.35,0-2.63-0.05-3.82-0.18c-1.19-0.12-2.52-0.37-4-0.76
		c-1.46-0.39-2.7-0.91-3.73-1.56c-1.03-0.67-1.9-1.59-2.61-2.78c-0.69-1.2-1.05-2.61-1.05-4.23v-14.41c0-6.61,5.07-9.91,15.22-9.91
		c2.49,0,5.96,0.37,10.42,1.12v5.91c-4.02-0.95-7.45-1.42-10.31-1.42c-1.16,0-2.1,0.04-2.81,0.11c-0.73,0.06-1.49,0.24-2.28,0.51
		c-0.8,0.27-1.39,0.7-1.78,1.28c-0.39,0.6-0.59,1.37-0.59,2.31v13.96c0,2.97,2.72,4.46,8.16,4.46c2.38,0,5.65-0.5,9.8-1.48V321.56z"
		/>
	<path class="st1" d="M381.19,294.95h-10.06v27.22h-7.88v-27.22h-10.13v-5.6h28.07V294.95z"/>
	<path class="st1" d="M446.88,320.56c-1.69,0.6-3.84,1.1-6.44,1.51c-2.63,0.41-5.03,0.6-7.22,0.6c-1.81,0-3.47-0.07-4.94-0.23
		c-1.46-0.14-2.92-0.43-4.39-0.85c-1.48-0.42-2.68-0.98-3.68-1.63c-1-0.68-1.8-1.6-2.42-2.74c-0.6-1.14-0.91-2.49-0.91-4.05V299.5
		c0-1.72,0.36-3.24,1.07-4.55c0.71-1.32,1.6-2.35,2.68-3.08c1.07-0.75,2.38-1.37,3.89-1.85c1.51-0.49,2.97-0.81,4.37-0.96
		c1.4-0.16,2.88-0.23,4.43-0.23c4.64,0,9.1,0.36,13.34,1.07v5.96c-4-0.95-8.45-1.42-13.34-1.42c-5.71,0-8.55,1.66-8.55,4.97v13.19
		c0,1.69,0.8,2.84,2.4,3.5c1.6,0.62,3.88,0.96,6.85,0.96c1.67,0,3.43-0.27,5.32-0.76v-7.65h-5.37v-5.16h12.91V320.56z"/>
	<path class="st1" d="M492.61,322.17h-9.12l-8.59-12.91h-3.64v12.91h-7.89v-32.82h14.78c4.3,0,7.47,0.52,9.46,1.56
		c1.97,1.04,2.97,2.83,2.97,5.35v5.76c0,1.99-0.71,3.54-2.15,4.61c-1.42,1.08-3.2,1.76-5.33,2.03L492.61,322.17z M482.83,300.46
		v-2.33c0-1.21-0.36-2.04-1.08-2.49c-0.73-0.46-1.97-0.69-3.72-0.69h-6.77v9.1h6.77c1.85,0,3.11-0.25,3.79-0.73
		C482.5,302.84,482.83,301.89,482.83,300.46z"/>
	<path class="st1" d="M537.73,298.79v14.37c0,1.87-0.5,3.45-1.48,4.76s-2.29,2.29-3.95,2.95c-1.65,0.66-3.29,1.12-4.94,1.39
		c-1.65,0.28-3.41,0.41-5.26,0.41c-1.76,0-3.4-0.11-4.92-0.33c-1.55-0.21-3.18-0.63-4.91-1.24c-1.74-0.6-3.13-1.58-4.16-2.93
		c-1.03-1.35-1.53-3.01-1.53-5.01v-14.37c0-1.68,0.37-3.16,1.14-4.44c0.75-1.28,1.65-2.26,2.72-2.93c1.05-0.68,2.35-1.23,3.88-1.64
		c1.51-0.43,2.86-0.69,4.04-0.78c1.19-0.11,2.44-0.16,3.75-0.16c1.35,0,2.61,0.05,3.82,0.16c1.19,0.09,2.56,0.36,4.07,0.78
		c1.51,0.41,2.81,0.96,3.89,1.64c1.07,0.68,1.99,1.64,2.72,2.92C537.35,295.59,537.73,297.09,537.73,298.79z M529.83,313.16v-14.41
		c0-1.59-0.64-2.69-1.96-3.33c-1.3-0.65-3.2-0.97-5.73-0.97c-2.56,0-4.5,0.31-5.76,0.93c-1.3,0.63-1.94,1.76-1.94,3.37v14.41
		c0,0.85,0.23,1.55,0.66,2.11c0.44,0.56,1.07,0.95,1.9,1.18c0.82,0.24,1.62,0.41,2.38,0.48c0.75,0.09,1.69,0.14,2.79,0.14
		c1.12,0,2.06-0.05,2.81-0.14c0.76-0.07,1.55-0.24,2.36-0.48c0.8-0.23,1.42-0.62,1.85-1.18
		C529.62,314.71,529.83,314.01,529.83,313.16z"/>
	<path class="st1" d="M582.57,289.35v23.81c0,6.35-4.75,9.51-14.26,9.51c-9.46,0-14.19-3.17-14.19-9.51v-23.81H562v23.81
		c0,1.49,0.48,2.51,1.48,3.07c0.96,0.56,2.63,0.84,4.94,0.84s3.91-0.28,4.85-0.84c0.94-0.56,1.42-1.57,1.42-3.07v-23.81H582.57z"/>
	<path class="st1" d="M625.81,296.87v6.22c0,3.24-1.09,5.45-3.24,6.63c-2.15,1.17-5.71,1.77-10.67,1.77h-4.34v10.68h-7.89v-32.82
		h13.16c4.64,0,7.97,0.51,9.97,1.54C624.81,291.91,625.81,293.91,625.81,296.87z M618.18,302.85v-5.26c0-1.04-0.41-1.74-1.21-2.1
		c-0.82-0.36-2.31-0.53-4.5-0.53h-4.91v11.13h5c2.06,0,3.5-0.25,4.36-0.73C617.75,304.86,618.18,304.02,618.18,302.85z"/>
</g>
<path class="st2" d="M415.19,572.09l-24.86-16.54l-0.01,0.03l-28.84-19.29v-35.74l55.17,36.78v-4.77l-5.86-3.91v-27.22l5.86,3.92
	v-1.59l-5.86-3.92v-17.29V465l5.86,3.94v-4.78l-5.86-3.95v-23.77l5.86-3.91v-4.77l-55.17,36.78v-35.07l29.32-19.55l-1.1-1.65
	l0.02-0.03l1.12,1.67l23.79-15.86l-24.73-16.65v-34.93l26.74,17.89v-4.77l-26.12-17.47l26.12-17.47v-2.33l-25.71-17.2L416.64,284
	v-4.77l-25.42,16.95v-34.22l23.97-15.98l-24.86-16.54l-0.01,0.02l-28.84-19.29v-35.75l55.17,36.78v-4.77l-5.86-3.9v-27.22l5.86,3.92
	v-1.59l-5.86-3.92v-34.84l5.86,3.94v-4.78l-5.86-3.95v-23.77l5.86-3.91v-4.76l-55.17,36.78v-35.07l29.32-19.55l-1.1-1.65l0.02-0.03
	l1.12,1.68l23.79-15.86L389.9,51.3V16.38l26.74,17.89v-4.77l-26.12-17.47l19-12.71h-2.38l-17.82,11.92L371.51-0.69h-7.14l21.39,14.3
	l-26.02,17.4l-1.68-1.13v0.05l-19.73-13.2l-0.01,0.02l-9.08-6.08V-0.69h-3.97v8.72l-13.03-8.72h-2.38l15.41,10.31v27.23l-56.3-37.53
	h-7.15l16.79,11.19v35.74l-51.16-34.22l19.01-12.71h-2.38l-17.82,11.92L208.46-0.69h-7.14l21.39,14.3l-26.01,17.4l-1.68-1.13v0.05
	l-19.73-13.2l-0.01,0.02l-9.08-6.08V-0.69h-3.97v8.71L149.2-0.69h-2.38l15.41,10.31v27.23l-56.3-37.53h-7.15l16.79,11.19v35.74
	l-22.1-14.78L64.41,12.02L83.42-0.69h-2.38L63.22,11.23L45.4-0.69h-7.14l21.39,14.3l-26.02,17.4l-1.67-1.13v0.05l-19.74-13.2
	l-0.01,0.02l-8.13-5.44v1.59l7.48,5l0.01-0.01l20.38,13.63v0.61L12.07,45.44l-7.98-5.32v4.77l6.75,4.5l49.17,32.78L4.09,119.45v4.77
	l29.95-19.97v35.07l-22.49,14.99v0l-1.17,0.79l-0.83,0.55l-5.46-3.65v1.59l4.27,2.86l-4.27,2.86v1.59l5.47-3.66l2,1.34l0-0.01
	l22.48,14.99v35.74L4.09,189.27v4.77l55.38,37.04L10.84,263.5l0,0l-6.75,4.5v4.77l7.97-5.32l19.66,13.15v35.69l-18.68-12.45
	l-8.96-6.03v4.78l6.74,4.53l1.11-1.64l-1.1,1.65l21.03,14.02l27.78,18.58l-26.02,17.4l-1.67-1.13v0.05l-19.74-13.2l-0.01,0.02
	l-8.13-5.44v1.59l7.48,5l0.01-0.01l20.38,13.63v0.61l-19.89,13.31l-7.98-5.32V371l6.75,4.5l49.17,32.78L4.09,445.56v4.77
	l29.95-19.97v35.07l-22.49,14.99v0l-1.17,0.79l-0.83,0.55l-5.46-3.65v1.59l4.27,2.86l0,0l-4.27,2.86v1.59l5.47-3.65l2,1.34l0-0.01
	l22.48,14.99v35.74L4.09,515.38v4.77l55.38,37.04l-48.62,32.42h0l-6.75,4.5v4.77l7.97-5.31l19.66,13.15v14.93h3.97v-12.27
	l18.35,12.27h2.38l-20.73-13.86v-29.96l25.44-16.96v26.42h0v34.37h3.97v-33.56l23.97-15.98l-24.86-16.54l-0.02,0.03L35.36,536.3
	v-35.74l57,38l1.1,0.73l48.06,32.05l-48.06,32.04l-27.38,18.25h7.16l20.22-13.48l22.1-14.73v28.21h1.32v-29.1l29.32-19.55l-1.1-1.65
	l0.02-0.03l1.12,1.68l23.79-15.86l-24.73-16.65v-34.93l77.21,51.64l-48.63,32.42l-48.04,32.02H133l29.22-19.48v19.48h3.97v-22.13
	l8.92-5.95l19.66,13.15v14.93h3.97v-12.27l18.35,12.27h2.38l-20.73-13.86v-29.96l25.44-16.96v26.42h0v34.37h3.97v-33.56l23.97-15.98
	l-24.85-16.54l-0.02,0.03l-28.84-19.29v-35.74l57.01,38l49.17,32.78l-75.45,50.29h7.16l42.32-28.21v28.21h1.32v-29.1l29.32-19.55
	l-1.1-1.65l0.02-0.03l1.12,1.68l23.79-15.86l-24.74-16.65v-34.93l77.21,51.64l-48.62,32.42l-48.04,32.02h7.15l29.23-19.48v19.48
	h3.97v-22.13l8.92-5.95l19.66,13.15v14.93h3.97v-12.27l18.35,12.27h2.38l-20.73-13.86v-29.96l25.44-16.96v26.42h0v34.37h3.97v-33.56
	L415.19,572.09z M31.72,605.11l-18.47-12.35l18.47-12.31V605.11z M81.92,572.1l-19.46,12.98v-25.11l0.61-0.41L81.92,572.1z
	 M194.78,605.11l-18.47-12.35l18.47-12.31V605.11z M244.97,572.1l-19.46,12.98v-25.11l0.62-0.41L244.97,572.1z M406.81,526.01
	l-65.19-43.46l20.49-13.66l20.42,13.66l24.27,16.23V526.01z M276.55,519.1l-19.73-13.2l-0.01,0.02l-9.08-6.08v-17.29V465l7.69,5.17
	l1.23-1.84l-1.22,1.84l18.55,12.37l2.48,1.65l27.78,18.58l-26.01,17.4l-1.68-1.13V519.1z M173.45,481.2l-0.84,0.56l-26.26-17.57
	l50.75-33.83v35.07l-22.48,14.99l0,0L173.45,481.2z M113.49,519.1l-19.73-13.2l-0.01,0.02l-9.08-6.08v-17.29V465l7.69,5.17l1.1-1.65
	l-1.1,1.65l18.55,12.37l2.48,1.65l27.78,18.58l-26.01,17.4l-1.68-1.13V519.1z M145.73,392.53l-28.84-19.29V337.5l57,38l1.85-2.76
	l-1.84,2.76l49.17,32.78l-76.43,50.96v-34.22l23.96-15.98l-24.85-16.54L145.73,392.53z M170.04,231l-24.73-16.65v-34.93l77.21,51.64
	l-48.63,32.42v0l-57.01,38.01v-35.08l29.32-19.55l-1.1-1.65l0.02-0.03l1.12,1.68L170.04,231z M142.66,98.09L142.66,98.09l0,37.53
	l-25.45-17.02V88.64l25.44-16.96V98.09z M143.99,70.79l0.61-0.41l18.85,12.54L143.99,95.9V70.79z M305.71,98.09L305.71,98.09
	l0.01,37.53l-25.45-17.02V88.64l25.44-16.96V98.09z M307.04,70.79l0.62-0.41l18.85,12.54L307.04,95.9V70.79z M357.83,280.59v35.69
	l-18.67-12.45l-9.91-6.67v-23.77l8.92-5.95L357.83,280.59z M339.37,266.65l18.46-12.31v24.67L339.37,266.65z M325.29,334.14
	l-43.51-29.1l43.51-29V334.14z M337.69,344.01l20.38,13.63v0.61l-19.89,13.31l-8.93-5.96v-27.21l8.43,5.64L337.69,344.01z
	 M358.07,359.84v24.98l-18.7-12.47L358.07,359.84z M325.29,362.95l-65.19-43.46l20.5-13.65l44.7,29.89V362.95z M276.31,443.65v35.69
	l-18.68-12.45l-9.9-6.66v-23.77l8.92-5.95L276.31,443.65z M257.84,429.71l18.47-12.31v24.66L257.84,429.71z M280.27,446.3
	l24.36,16.3l-24.36,16.25V446.3z M280.27,444.71v-29.96l25.44-16.96v26.42h0.01v37.53L280.27,444.71z M307.04,396.9l0.62-0.4
	l18.85,12.54l-19.46,12.97V396.9z M255.42,426.55l-57.01,38v-35.07l29.32-19.55l-1.1-1.65l0.02-0.03l1.12,1.67l23.79-15.86
	l-24.73-16.65v-34.93l77.21,51.64L255.42,426.55z M224.19,261.14L224.19,261.14l0,37.53l-25.45-17.02v-29.96l25.44-16.96V261.14z
	 M225.51,233.85l0.62-0.41l18.85,12.55l-19.46,12.97V233.85z M198.75,315.79v-32.54l24.37,16.3L198.75,315.79z M226.68,301.93
	l26.27,17.56l-26.68,17.85l-26.31-17.6L226.68,301.93z M194.78,279.01l-18.47-12.35l18.47-12.31V279.01z M194.78,280.59v35.69
	l-18.68-12.46l-9.9-6.66v-23.77l8.92-5.95L194.78,280.59z M162.23,334.14l-43.5-29.09l43.5-29V334.14z M166.2,301.94l7.69,5.17
	l1.24-1.83l-1.23,1.84l21.03,14.02l27.78,18.58l-26.01,17.4l-1.68-1.13v0.05l-19.73-13.2l-0.01,0.02l-9.08-6.08V301.94z
	 M223.9,340.52l1.61,1.08v34.92l-27.63-18.61L223.9,340.52z M174.63,344.02l0.01-0.01l20.37,13.63v0.61l-19.89,13.31l-8.93-5.96
	v-27.22L174.63,344.02z M195.02,359.84v24.98l-18.7-12.47L195.02,359.84z M198.99,363.45l45.45,30.6l-17.78,11.85l-27.67-18.45
	V363.45z M227.47,338.14l26.67-17.85l2,1.34l0,0l22.48,14.98v35.74L227.47,338.14z M256.14,317.37l-1.18,0.79l-0.83,0.55
	l-26.26-17.56l50.75-33.84v35.07L256.14,317.37z M228.16,296.18v-34.22l23.97-15.98l-24.85-16.54l-0.02,0.02l-28.84-19.29v-35.75
	l57.01,38l49.17,32.78L228.16,296.18z M145.94,175.08l26.67-17.84l2,1.34l0-0.01l22.48,14.99v35.74L145.94,175.08z M143.99,178.55
	v34.92l-27.64-18.6l26.02-17.4L143.99,178.55z M145.15,138.88l26.27,17.57l-26.67,17.84l-26.31-17.6L145.15,138.88z M117.22,152.73
	v-32.54l24.37,16.29L117.22,152.73z M256.17,180.95l20.38,13.63v0.61l-19.89,13.31l-8.93-5.95v-27.22l8.43,5.64L256.17,180.95z
	 M276.55,196.78v24.98l-18.7-12.47L276.55,196.78z M243.75,199.9l-65.18-43.46l20.49-13.66l44.7,29.9V199.9z M280.51,224.4V200.4
	l45.46,30.59l-17.78,11.86L280.51,224.4z M279.41,194.87l26.01-17.4l1.62,1.08v34.92L279.41,194.87z M278.23,194.07l-1.68-1.12v0.04
	l-19.73-13.2l-0.01,0.01l-9.08-6.07v-34.84l7.69,5.17l1.23-1.84l-1.22,1.84l21.03,14.02l27.78,18.58L278.23,194.07z M281.49,156.69
	l26.72-17.81l26.27,17.57l-26.67,17.84L281.49,156.69z M280.27,152.73v-32.54l24.36,16.29L280.27,152.73z M276.31,115.94
	l-18.47-12.35l18.47-12.31V115.94z M276.31,117.54v35.69l-18.68-12.45l-9.9-6.66v-23.77l8.92-5.95L276.31,117.54z M243.75,171.08
	l-43.5-29.1l43.5-29V171.08z M174.61,154.31L174.61,154.31l-1.17,0.78l-0.84,0.56l-26.26-17.56l50.75-33.84v35.07L174.61,154.31z
	 M113.25,115.94l-18.46-12.35l18.46-12.31V115.94z M113.25,117.54v35.69l-18.68-12.45l-1.09-0.74l-8.8-5.93v-23.77l8.8-5.86
	l0.12-0.08L113.25,117.54z M92.36,144.06l1.1-1.65L92.36,144.06l21.04,14.02l27.78,18.58l-26.01,17.4l-1.68-1.12v0.04l-19.73-13.2
	l-0.01,0.01l-9.08-6.07v-34.84L92.36,144.06z M93.1,180.96l0.01-0.02l20.38,13.63v0.61l-19.9,13.31l-0.13-0.08v0l-8.8-5.86v-27.22
	L93.1,180.96z M113.49,196.78v24.98l-18.7-12.47L113.49,196.78z M117.46,200.4l45.45,30.59l-17.78,11.86l-27.67-18.45V200.4z
	 M115.57,302.38l-22.1,14.73v0l-0.39,0.26l-1.18,0.79l-0.83,0.55l-26.26-17.56l28.65-19.1v0l22.1-14.73V302.38z M117.53,305.84
	l44.7,29.89v27.22l-65.19-43.46L117.53,305.84z M163.44,409.04l-19.46,12.97V396.9l0.61-0.4L163.44,409.04z M142.66,424.21
	L142.66,424.21l0,37.53l-25.45-17.02v-29.96l25.44-16.96V424.21z M141.59,462.6l-24.37,16.25V446.3L141.59,462.6z M113.25,442.06
	l-18.46-12.35l18.46-12.31V442.06z M113.25,443.65v35.69l-18.68-12.45l-1.09-0.74l-8.8-5.92v-23.77l8.8-5.86l0.12-0.08
	L113.25,443.65z M118.44,482.8l0.38-0.25l26.34-17.57l26.26,17.57l0,0l-26.67,17.84L118.44,482.8z M243.75,439.09v43.46v14.64
	l-21.89-14.64l-21.61-14.46L243.75,439.09z M281.49,482.8l0.37-0.25l26.34-17.57l26.26,17.57l0,0L307.8,500.4L281.49,482.8z
	 M406.81,439.09v43.46v14.64l-21.89-14.64l-21.61-14.46L406.81,439.09z M360.16,465.44l-22.49,14.99v0l-1.18,0.79l-0.83,0.55
	L309.4,464.2l50.75-33.83V465.44z M386.12,408.28l-76.43,50.96v-34.22l23.97-15.98l-24.85-16.54l-0.02,0.03l-28.84-19.29V337.5
	l57.01,38L386.12,408.28z M407.5,394.05l-17.78,11.85l-27.67-18.45v-24.01L407.5,394.05z M388.57,341.61v34.92l-27.63-18.61
	l26.01-17.4L388.57,341.61z M385.77,339.73l-26.02,17.4l-1.68-1.13v0.05l-19.73-13.2l-0.01,0.02l-9.08-6.08v-34.85l7.69,5.17
	l1.11-1.64l-1.1,1.65l21.03,14.02L385.77,339.73z M416.01,319.5l-26.68,17.85l-26.31-17.6l26.72-17.81L416.01,319.5z M361.8,315.79
	v-32.54l24.36,16.3L361.8,315.79z M387.25,261.14v37.53l-25.45-17.02v-29.96l25.44-16.96L387.25,261.14L387.25,261.14z
	 M408.03,245.99l-19.46,12.97v-25.11l0.61-0.41L408.03,245.99z M385.58,231.08l-48.62,32.42v0l-57.01,38.01v-35.08l29.32-19.55
	l-1.1-1.65l0.02-0.02l1.12,1.67L333.1,231l-24.74-16.65v-34.93L385.58,231.08z M360.16,209.3l-51.16-34.22l26.67-17.84l2,1.34
	l0-0.01l22.48,14.99V209.3z M406.81,199.9l-65.19-43.46l20.49-13.66l44.7,29.9V199.9z M406.81,112.98v58.1l-43.5-29.1L406.81,112.98
	z M360.16,139.32l-22.49,14.99v0l-1.18,0.79l-0.83,0.55l-26.26-17.56l50.75-33.84V139.32z M407.5,67.94l-17.78,11.85l-27.67-18.44
	V37.33L407.5,67.94z M358.07,58.7l-18.7-12.46l18.7-12.51V58.7z M386.95,14.41l1.62,1.08v34.92l-27.63-18.61L386.95,14.41z
	 M329.25,12.27l8.43,5.64l0.01-0.01l20.38,13.63v0.61l-19.89,13.31l-8.93-5.96V12.27z M279.95,11.38l57.01,38l49.17,32.78
	l-76.43,50.95V98.9l23.97-15.98l-24.85-16.54l-0.02,0.03l-28.84-19.29V11.38z M304.05,68.02l-48.62,32.42l-57.01,38v-35.07
	l29.32-19.55l-1.1-1.65l0.02-0.03l1.12,1.68l23.79-15.86L226.84,51.3V16.38L304.05,68.02z M198.99,37.33l45.45,30.6l-17.78,11.85
	l-27.67-18.44V37.33z M195.02,58.7l-18.7-12.46l18.7-12.51V58.7z M223.9,14.41l1.61,1.08v34.92l-27.63-18.61L223.9,14.41z
	 M166.2,12.27l8.43,5.64l0.01-0.01l20.37,13.63v0.61l-19.89,13.31l-8.93-5.96V12.27z M116.89,11.38l57,38l1.85-2.77l-1.84,2.77
	l49.17,32.78l-76.43,50.95V98.9l23.96-15.98l-24.85-16.54l-0.02,0.03l-28.84-19.29V11.38z M34.83,31.81l26.01-17.4l1.62,1.08v34.92
	L34.83,31.81z M13.26,46.24l18.7-12.51V58.7L13.26,46.24z M35.93,61.35V37.33l45.45,30.6L63.6,79.79L35.93,61.35z M35.36,103.37
	l29.32-19.55l-1.1-1.65l0.02-0.03l1.12,1.68l23.79-15.86L63.78,51.3V16.38l29.69,19.85l47.52,31.78L93.47,99.71l-1.1,0.73h0l-57,38
	V103.37z M80.7,112.98v58.1l-43.51-29.1L80.7,112.98z M15.51,156.44l20.5-13.66l44.7,29.9v27.23L15.51,156.44z M64.2,229.47
	l-28.84-19.29v-35.75l57,38l1.1,0.73v0l48.06,32.04l-48.06,32.04L65.1,296.18v-34.22l23.97-15.98l-24.86-16.54L64.2,229.47z
	 M63.06,233.44l18.85,12.55l-19.46,12.97v-25.11L63.06,233.44z M13.26,266.65l18.47-12.31v24.67L13.26,266.65z M35.69,251.69
	l25.44-16.96v26.42h0v37.53l-25.45-17.02V251.69z M35.69,283.25l24.36,16.3l-24.36,16.24V283.25z M36.91,319.74l26.72-17.81
	l26.26,17.56l-26.67,17.85L36.91,319.74z M64.41,338.14l26.67-17.85l2,1.34l0,0l0.38,0.26l22.1,14.73v35.74l-22.1-14.78
	L64.41,338.14z M34.83,357.92l26.01-17.4l1.62,1.08v34.92L34.83,357.92z M13.26,372.35l18.7-12.51v24.98L13.26,372.35z
	 M35.93,387.46v-24.01l45.45,30.6L63.6,405.9L35.93,387.46z M35.36,429.48l29.32-19.55l-1.1-1.65l0.02-0.03l1.12,1.67l23.79-15.86
	l-24.73-16.65v-34.93l29.69,19.86l47.52,31.78l-47.52,31.68l-1.1,0.73h0l-57,38V429.48z M80.7,439.09v43.46v14.64l-21.89-14.64
	L37.2,468.1L80.7,439.09z M15.51,482.56l20.5-13.66l20.42,13.66l24.27,16.23v27.23L15.51,482.56z M93.47,534.53l-8.8-5.87v-27.22
	l8.43,5.64l0.01-0.01l20.38,13.63v0.61l-19.9,13.31L93.47,534.53z M94.79,535.41l18.7-12.51v24.98L94.79,535.41z M162.91,557.11
	l-17.78,11.85l-27.67-18.44v-24.01L162.91,557.11z M143.99,539.59l-27.64-18.61l26.02-17.4l1.62,1.09V539.59z M197.09,535.41
	l-51.16-34.22l26.67-17.84l2,1.34l0-0.01l22.48,14.99V535.41z M178.57,482.56l20.49-13.66l20.43,13.66l24.27,16.23v27.23
	L178.57,482.56z M247.72,528.66v-27.22l8.43,5.64l0.01-0.01l20.38,13.63v0.61l-19.89,13.31L247.72,528.66z M257.85,535.41
	l18.7-12.51v24.98L257.85,535.41z M325.97,557.11l-17.78,11.85l-27.67-18.44v-24.01L325.97,557.11z M307.04,539.59l-27.63-18.61
	l26.01-17.4l1.62,1.09V539.59z M308.99,501.2l26.67-17.84l2,1.34l0-0.01l22.48,14.99v35.74L308.99,501.2z M357.83,605.11
	l-18.46-12.35l18.46-12.31V605.11z M388.57,559.97l0.61-0.41l18.85,12.54l-19.46,12.98V559.97z"/>
</svg>
