<?xml version="1.0" encoding="utf-8"?>
<!-- Generator: Adobe Illustrator 23.0.1, SVG Export Plug-In . SVG Version: 6.00 Build 0)  -->
<svg version="1.1" id="Слой_1" xmlns="http://www.w3.org/2000/svg" xmlns:xlink="http://www.w3.org/1999/xlink" x="0px" y="0px"
	 viewBox="0 0 834.88 182.96" style="enable-background:new 0 0 834.88 182.96;" xml:space="preserve">
<style type="text/css">
	.st0{display:none;}
	.st1{display:inline;}
	.st2{fill:#B3B3B3;}
	.st3{opacity:0.05;enable-background:new    ;}
	.st4{fill:#FFFFFF;stroke:#808080;stroke-width:0.7087;stroke-miterlimit:10;}
</style>
<g class="st0">
	<path class="st1" d="M469.66,255.39v6.22c0,3.24-1.09,5.45-3.24,6.63c-2.15,1.17-5.71,1.77-10.67,1.77h-4.36v10.68h-7.88v-32.82
		h13.14c4.66,0,7.98,0.51,9.99,1.54C468.66,250.43,469.66,252.43,469.66,255.39z M462.03,261.37v-5.26c0-1.04-0.41-1.74-1.23-2.1
		c-0.8-0.36-2.31-0.53-4.5-0.53h-4.91v11.13h5.01c2.06,0,3.5-0.25,4.34-0.73C461.61,263.39,462.03,262.54,462.03,261.37z"/>
	<path class="st1" d="M514.57,280.7h-9.1l-8.59-12.91h-3.66v12.91h-7.88v-32.82h14.76c4.32,0,7.49,0.52,9.48,1.56
		c1.97,1.04,2.99,2.83,2.99,5.35v5.76c0,1.99-0.73,3.54-2.17,4.61c-1.42,1.08-3.2,1.76-5.33,2.03L514.57,280.7z M504.81,258.99
		v-2.33c0-1.21-0.36-2.04-1.1-2.49c-0.71-0.46-1.96-0.69-3.7-0.69h-6.79v9.1h6.79c1.85,0,3.11-0.25,3.79-0.73
		C504.47,261.36,504.81,260.41,504.81,258.99z"/>
	<path class="st1" d="M559.66,257.31v14.37c0,1.87-0.48,3.45-1.46,4.76c-0.98,1.32-2.29,2.29-3.95,2.95
		c-1.65,0.66-3.31,1.12-4.96,1.39c-1.65,0.28-3.38,0.41-5.25,0.41c-1.74,0-3.4-0.11-4.92-0.33c-1.53-0.21-3.16-0.63-4.91-1.24
		c-1.74-0.6-3.13-1.58-4.14-2.93c-1.03-1.35-1.55-3.01-1.55-5.01v-14.37c0-1.68,0.39-3.16,1.14-4.44c0.76-1.28,1.67-2.26,2.74-2.93
		c1.07-0.68,2.35-1.23,3.86-1.64c1.51-0.43,2.86-0.69,4.05-0.78c1.17-0.11,2.42-0.16,3.73-0.16c1.35,0,2.63,0.05,3.81,0.16
		c1.19,0.09,2.56,0.36,4.07,0.78c1.51,0.41,2.83,0.96,3.89,1.64c1.07,0.68,1.99,1.64,2.74,2.92
		C559.3,254.12,559.66,255.61,559.66,257.31z M551.76,271.68v-14.41c0-1.59-0.64-2.69-1.94-3.33c-1.3-0.65-3.2-0.97-5.72-0.97
		c-2.56,0-4.48,0.31-5.76,0.93c-1.28,0.63-1.92,1.76-1.92,3.37v14.41c0,0.85,0.21,1.55,0.66,2.11s1.07,0.95,1.88,1.18
		c0.84,0.24,1.64,0.41,2.38,0.48c0.76,0.09,1.69,0.14,2.81,0.14c1.1,0,2.05-0.05,2.81-0.14c0.75-0.07,1.53-0.24,2.33-0.48
		c0.82-0.23,1.42-0.62,1.85-1.18S551.76,272.53,551.76,271.68z"/>
	<path class="st1" d="M591.67,247.87v23.86c0,3.55-0.96,6.01-2.88,7.39s-4.71,2.07-8.4,2.07c-2.2,0-4.45-0.16-6.81-0.5v-5.78
		c2.47,0.45,4.57,0.68,6.2,0.68c2.67,0,3.98-1.21,3.98-3.61v-24.11L591.67,247.87L591.67,247.87z"/>
	<path class="st1" d="M634.31,280.7h-25.53v-32.82h25.03v5.6h-17.14v7.54h15.47v5.62h-15.47v8.44h17.64V280.7z"/>
	<path class="st1" d="M674.26,280.08c-3.72,0.74-7.25,1.11-10.61,1.11c-1.35,0-2.63-0.05-3.82-0.18c-1.19-0.12-2.52-0.37-4-0.76
		c-1.46-0.39-2.7-0.91-3.73-1.56c-1.03-0.67-1.9-1.59-2.61-2.78c-0.69-1.2-1.05-2.61-1.05-4.23v-14.41c0-6.61,5.07-9.91,15.22-9.91
		c2.49,0,5.96,0.37,10.42,1.12v5.91c-4.02-0.95-7.45-1.42-10.31-1.42c-1.16,0-2.1,0.04-2.81,0.11c-0.73,0.06-1.49,0.24-2.28,0.51
		c-0.8,0.27-1.39,0.7-1.78,1.28c-0.39,0.6-0.59,1.37-0.59,2.31v13.96c0,2.97,2.72,4.46,8.16,4.46c2.38,0,5.65-0.5,9.8-1.48
		L674.26,280.08L674.26,280.08z"/>
	<path class="st1" d="M714.97,253.48h-10.06v27.22h-7.88v-27.22H686.9v-5.6h28.07L714.97,253.48L714.97,253.48z"/>
	<path class="st1" d="M780.67,279.08c-1.69,0.6-3.84,1.1-6.44,1.51c-2.63,0.41-5.03,0.6-7.22,0.6c-1.81,0-3.47-0.07-4.94-0.23
		c-1.46-0.14-2.92-0.43-4.39-0.85c-1.48-0.42-2.68-0.98-3.68-1.63c-1-0.68-1.8-1.6-2.42-2.74c-0.6-1.14-0.91-2.49-0.91-4.05v-13.65
		c0-1.72,0.36-3.24,1.07-4.55c0.71-1.32,1.6-2.35,2.68-3.08c1.07-0.75,2.38-1.37,3.89-1.85c1.51-0.49,2.97-0.81,4.37-0.96
		c1.4-0.16,2.88-0.23,4.43-0.23c4.64,0,9.1,0.36,13.34,1.07v5.96c-4-0.95-8.45-1.42-13.34-1.42c-5.71,0-8.55,1.66-8.55,4.97v13.19
		c0,1.69,0.8,2.84,2.4,3.5c1.6,0.62,3.88,0.96,6.85,0.96c1.67,0,3.43-0.27,5.32-0.76v-7.65h-5.37v-5.16h12.91L780.67,279.08
		L780.67,279.08z"/>
	<path class="st1" d="M826.39,280.7h-9.12l-8.59-12.91h-3.64v12.91h-7.89v-32.82h14.78c4.3,0,7.47,0.52,9.46,1.56
		c1.97,1.04,2.97,2.83,2.97,5.35v5.76c0,1.99-0.71,3.54-2.15,4.61c-1.42,1.08-3.2,1.76-5.33,2.03L826.39,280.7z M816.62,258.99
		v-2.33c0-1.21-0.36-2.04-1.08-2.49c-0.73-0.46-1.97-0.69-3.72-0.69h-6.77v9.1h6.77c1.85,0,3.11-0.25,3.79-0.73
		C816.28,261.36,816.62,260.41,816.62,258.99z"/>
	<path class="st1" d="M871.51,257.31v14.37c0,1.87-0.5,3.45-1.48,4.76c-0.98,1.32-2.29,2.29-3.95,2.95
		c-1.65,0.66-3.29,1.12-4.94,1.39c-1.65,0.28-3.41,0.41-5.26,0.41c-1.76,0-3.4-0.11-4.92-0.33c-1.55-0.21-3.18-0.63-4.91-1.24
		c-1.74-0.6-3.13-1.58-4.16-2.93c-1.03-1.35-1.53-3.01-1.53-5.01v-14.37c0-1.68,0.37-3.16,1.14-4.44c0.75-1.28,1.65-2.26,2.72-2.93
		c1.05-0.68,2.35-1.23,3.88-1.64c1.51-0.43,2.86-0.69,4.04-0.78c1.19-0.11,2.44-0.16,3.75-0.16c1.35,0,2.61,0.05,3.82,0.16
		c1.19,0.09,2.56,0.36,4.07,0.78c1.51,0.41,2.81,0.96,3.89,1.64c1.07,0.68,1.99,1.64,2.72,2.92
		C871.14,254.12,871.51,255.61,871.51,257.31z M863.62,271.68v-14.41c0-1.59-0.64-2.69-1.96-3.33c-1.3-0.65-3.2-0.97-5.73-0.97
		c-2.56,0-4.5,0.31-5.76,0.93c-1.3,0.63-1.94,1.76-1.94,3.37v14.41c0,0.85,0.23,1.55,0.66,2.11c0.44,0.56,1.07,0.95,1.9,1.18
		c0.82,0.24,1.62,0.41,2.38,0.48c0.75,0.09,1.69,0.14,2.79,0.14c1.12,0,2.06-0.05,2.81-0.14c0.76-0.07,1.55-0.24,2.36-0.48
		c0.8-0.23,1.42-0.62,1.85-1.18C863.4,273.23,863.62,272.53,863.62,271.68z"/>
	<path class="st1" d="M916.35,247.87v23.81c0,6.35-4.75,9.51-14.26,9.51c-9.46,0-14.19-3.17-14.19-9.51v-23.81h7.88v23.81
		c0,1.49,0.48,2.51,1.48,3.07c0.96,0.56,2.63,0.84,4.94,0.84s3.91-0.28,4.85-0.84s1.42-1.57,1.42-3.07v-23.81H916.35z"/>
	<path class="st1" d="M959.59,255.39v6.22c0,3.24-1.09,5.45-3.24,6.63c-2.15,1.17-5.71,1.77-10.67,1.77h-4.34v10.68h-7.89v-32.82
		h13.16c4.64,0,7.97,0.51,9.97,1.54C958.59,250.43,959.59,252.43,959.59,255.39z M951.96,261.37v-5.26c0-1.04-0.41-1.74-1.21-2.1
		c-0.82-0.36-2.31-0.53-4.5-0.53h-4.91v11.13h5c2.06,0,3.5-0.25,4.36-0.73C951.53,263.39,951.96,262.54,951.96,261.37z"/>
</g>
<g>
	<path class="st2" d="M798.97,19.68C778.3,42.56,748.76,63.6,711.2,81.8c-79.12,38.33-184.32,59.44-296.22,59.44
		s-217.1-21.11-296.22-59.44C81.2,63.6,51.66,42.56,30.99,19.68h-0.18c21.01,23.3,50.52,44.27,87.84,62.35
		c38.49,18.65,83.31,33.29,133.21,43.51c51.67,10.59,106.55,15.96,163.12,15.96s111.45-5.37,163.12-15.96
		c49.9-10.23,94.72-24.87,133.21-43.51c37.32-18.08,66.83-39.05,87.84-62.35H798.97z"/>
</g>
<g class="st3">
	<path d="M195.78,94.79l-37.72,88.01h-24.52L95.95,94.79h26.91l23.89,57.33l24.39-57.33H195.78z"/>
	<path d="M256.89,165.7h-37.22l-6.92,17.1h-25.4l38.85-88.01h24.52l38.98,88.01h-25.9L256.89,165.7z M249.59,147.35l-11.32-28.16
		l-11.32,28.16H249.59z"/>
	<path d="M314.54,178.72c-7.34-3.9-13.1-9.32-17.29-16.28c-4.19-6.96-6.29-14.84-6.29-23.64c0-8.8,2.09-16.68,6.29-23.64
		c4.19-6.96,9.95-12.38,17.29-16.28c7.33-3.9,15.61-5.85,24.83-5.85c8.05,0,15.3,1.43,21.75,4.27c6.45,2.85,11.82,6.96,16.09,12.32
		l-15.84,14.33c-5.7-6.87-12.62-10.31-20.75-10.31c-4.78,0-9.03,1.05-12.76,3.14c-3.73,2.1-6.62,5.05-8.68,8.86
		c-2.06,3.82-3.08,8.19-3.08,13.14c0,4.95,1.03,9.33,3.08,13.14c2.05,3.82,4.94,6.77,8.68,8.86c3.73,2.1,7.98,3.14,12.76,3.14
		c8.13,0,15.04-3.44,20.75-10.31l15.84,14.33c-4.27,5.37-9.64,9.47-16.09,12.32c-6.46,2.85-13.71,4.27-21.75,4.27
		C330.15,184.56,321.87,182.61,314.54,178.72z"/>
	<path d="M445.74,165.7h-37.22l-6.92,17.1h-25.4l38.85-88.01h24.52l38.98,88.01h-25.9L445.74,165.7z M438.44,147.35l-11.32-28.16
		l-11.32,28.16H438.44z"/>
	<path d="M569.33,94.79v88.01h-20.49l-38.85-46.9v46.9h-24.39V94.79h20.49l38.85,46.9v-46.9H569.33z"/>
	<path d="M605.98,178.72c-7.34-3.9-13.1-9.32-17.29-16.28c-4.19-6.96-6.29-14.84-6.29-23.64c0-8.8,2.09-16.68,6.29-23.64
		c4.19-6.96,9.95-12.38,17.29-16.28c7.33-3.9,15.61-5.85,24.83-5.85c8.05,0,15.3,1.43,21.75,4.27c6.45,2.85,11.82,6.96,16.09,12.32
		l-15.84,14.33c-5.7-6.87-12.62-10.31-20.75-10.31c-4.78,0-9.03,1.05-12.76,3.14c-3.73,2.1-6.62,5.05-8.68,8.86
		c-2.05,3.82-3.08,8.19-3.08,13.14c0,4.95,1.03,9.33,3.08,13.14c2.05,3.82,4.94,6.77,8.68,8.86c3.73,2.1,7.98,3.14,12.76,3.14
		c8.13,0,15.04-3.44,20.75-10.31l15.84,14.33c-4.28,5.37-9.64,9.47-16.09,12.32c-6.46,2.85-13.71,4.27-21.75,4.27
		C621.59,184.56,613.32,182.61,605.98,178.72z"/>
	<path d="M726.5,151.24v31.56h-24.9v-31.94l-33.57-56.08h26.28l20.87,34.95l20.87-34.95h24.14L726.5,151.24z"/>
</g>
<circle class="st4" cx="29.9" cy="18.68" r="2.8"/>
<circle class="st4" cx="800.05" cy="17.64" r="2.8"/>
<circle class="st4" cx="423.36" cy="141.29" r="2.8"/>
</svg>
