<?xml version="1.0" encoding="utf-8"?>
<!-- Generator: Adobe Illustrator 23.0.1, SVG Export Plug-In . SVG Version: 6.00 Build 0)  -->
<svg version="1.1" id="Слой_1" xmlns="http://www.w3.org/2000/svg" xmlns:xlink="http://www.w3.org/1999/xlink" x="0px" y="0px"
	 viewBox="0 0 135.62 136.44" style="enable-background:new 0 0 135.62 136.44;" xml:space="preserve">
<style type="text/css">
	.st0{display:none;}
	.st1{display:inline;}
</style>
<g class="st0">
	<path class="st1" d="M33.75,163.05v6.22c0,3.24-1.09,5.45-3.24,6.63c-2.15,1.17-5.71,1.77-10.67,1.77h-4.36v10.68H7.61v-32.82
		h13.14c4.66,0,7.98,0.51,9.99,1.54C32.75,158.09,33.75,160.09,33.75,163.05z M26.12,169.02v-5.26c0-1.04-0.41-1.74-1.23-2.1
		c-0.8-0.36-2.31-0.53-4.5-0.53h-4.91v11.13h5.01c2.06,0,3.5-0.25,4.34-0.73C25.69,171.04,26.12,170.19,26.12,169.02z"/>
	<path class="st1" d="M78.66,188.35h-9.1l-8.59-12.91H57.3v12.91h-7.88v-32.82h14.76c4.32,0,7.49,0.52,9.48,1.56
		c1.97,1.04,2.99,2.83,2.99,5.35v5.76c0,1.99-0.73,3.54-2.17,4.61c-1.42,1.08-3.2,1.76-5.33,2.03L78.66,188.35z M68.9,166.64v-2.33
		c0-1.21-0.36-2.04-1.1-2.49c-0.71-0.46-1.96-0.69-3.7-0.69H57.3v9.1h6.79c1.85,0,3.11-0.25,3.79-0.73
		C68.56,169.01,68.9,168.06,68.9,166.64z"/>
	<path class="st1" d="M123.75,164.97v14.37c0,1.87-0.48,3.45-1.46,4.76c-0.98,1.32-2.29,2.29-3.95,2.95
		c-1.65,0.66-3.31,1.12-4.96,1.39c-1.65,0.28-3.38,0.41-5.25,0.41c-1.74,0-3.4-0.11-4.92-0.33c-1.53-0.21-3.16-0.63-4.91-1.24
		c-1.74-0.6-3.13-1.58-4.14-2.93c-1.03-1.35-1.55-3.01-1.55-5.01v-14.37c0-1.68,0.39-3.16,1.14-4.44c0.76-1.28,1.67-2.26,2.74-2.93
		c1.07-0.68,2.35-1.23,3.86-1.64c1.51-0.43,2.86-0.69,4.05-0.78c1.17-0.11,2.42-0.16,3.73-0.16c1.35,0,2.63,0.05,3.81,0.16
		c1.19,0.09,2.56,0.36,4.07,0.78c1.51,0.41,2.83,0.96,3.89,1.64c1.07,0.68,1.99,1.64,2.74,2.92
		C123.39,161.77,123.75,163.26,123.75,164.97z M115.85,179.33v-14.41c0-1.59-0.64-2.69-1.94-3.33c-1.3-0.65-3.2-0.97-5.72-0.97
		c-2.56,0-4.48,0.31-5.76,0.93c-1.28,0.63-1.92,1.76-1.92,3.37v14.41c0,0.85,0.21,1.55,0.66,2.11s1.07,0.95,1.88,1.18
		c0.84,0.24,1.64,0.41,2.38,0.48c0.76,0.09,1.69,0.14,2.81,0.14c1.1,0,2.05-0.05,2.81-0.14c0.75-0.07,1.53-0.24,2.33-0.48
		c0.82-0.23,1.42-0.62,1.85-1.18S115.85,180.19,115.85,179.33z"/>
	<path class="st1" d="M155.76,155.53v23.86c0,3.55-0.96,6.01-2.88,7.39c-1.92,1.38-4.71,2.07-8.4,2.07c-2.2,0-4.44-0.16-6.81-0.5
		v-5.78c2.47,0.45,4.57,0.68,6.2,0.68c2.67,0,3.98-1.21,3.98-3.61v-24.11H155.76z"/>
	<path class="st1" d="M198.39,188.35h-25.53v-32.82h25.03v5.6h-17.14v7.54h15.47v5.62h-15.47v8.44h17.64V188.35z"/>
	<path class="st1" d="M238.34,187.73c-3.72,0.74-7.25,1.11-10.61,1.11c-1.35,0-2.63-0.05-3.82-0.18c-1.19-0.12-2.52-0.37-4-0.76
		c-1.46-0.39-2.7-0.91-3.73-1.56c-1.03-0.67-1.9-1.59-2.61-2.78c-0.69-1.2-1.05-2.61-1.05-4.23v-14.41c0-6.61,5.07-9.91,15.22-9.91
		c2.49,0,5.96,0.37,10.42,1.12v5.91c-4.02-0.95-7.45-1.42-10.31-1.42c-1.16,0-2.1,0.04-2.81,0.11c-0.73,0.06-1.49,0.24-2.28,0.51
		c-0.8,0.27-1.39,0.7-1.78,1.28c-0.39,0.6-0.59,1.37-0.59,2.31v13.96c0,2.97,2.72,4.46,8.16,4.46c2.38,0,5.65-0.5,9.8-1.48V187.73z"
		/>
	<path class="st1" d="M279.06,161.13h-10.06v27.22h-7.88v-27.22h-10.13v-5.6h28.07V161.13z"/>
	<path class="st1" d="M344.75,186.73c-1.69,0.6-3.84,1.1-6.44,1.51c-2.63,0.41-5.03,0.6-7.22,0.6c-1.81,0-3.47-0.07-4.94-0.23
		c-1.46-0.14-2.92-0.43-4.39-0.85c-1.48-0.42-2.68-0.98-3.68-1.63c-1-0.68-1.8-1.6-2.42-2.74c-0.6-1.14-0.91-2.49-0.91-4.05v-13.65
		c0-1.72,0.36-3.24,1.07-4.55c0.71-1.32,1.6-2.35,2.68-3.08c1.07-0.75,2.38-1.37,3.89-1.85c1.51-0.49,2.97-0.81,4.37-0.96
		c1.4-0.16,2.88-0.23,4.43-0.23c4.64,0,9.1,0.36,13.34,1.07v5.96c-4-0.95-8.45-1.42-13.34-1.42c-5.71,0-8.55,1.66-8.55,4.97v13.19
		c0,1.69,0.8,2.84,2.4,3.5c1.6,0.62,3.88,0.96,6.85,0.96c1.67,0,3.43-0.27,5.32-0.76v-7.65h-5.37v-5.16h12.91V186.73z"/>
	<path class="st1" d="M390.48,188.35h-9.12l-8.59-12.91h-3.64v12.91h-7.89v-32.82h14.78c4.3,0,7.47,0.52,9.46,1.56
		c1.97,1.04,2.97,2.83,2.97,5.35v5.76c0,1.99-0.71,3.54-2.15,4.61c-1.42,1.08-3.2,1.76-5.33,2.03L390.48,188.35z M380.7,166.64
		v-2.33c0-1.21-0.36-2.04-1.08-2.49c-0.73-0.46-1.97-0.69-3.72-0.69h-6.77v9.1h6.77c1.85,0,3.11-0.25,3.79-0.73
		C380.36,169.01,380.7,168.06,380.7,166.64z"/>
	<path class="st1" d="M435.6,164.97v14.37c0,1.87-0.5,3.45-1.48,4.76c-0.98,1.32-2.29,2.29-3.95,2.95
		c-1.65,0.66-3.29,1.12-4.94,1.39c-1.65,0.28-3.41,0.41-5.26,0.41c-1.76,0-3.4-0.11-4.92-0.33c-1.55-0.21-3.18-0.63-4.91-1.24
		c-1.74-0.6-3.13-1.58-4.16-2.93c-1.03-1.35-1.53-3.01-1.53-5.01v-14.37c0-1.68,0.37-3.16,1.14-4.44c0.75-1.28,1.65-2.26,2.72-2.93
		c1.05-0.68,2.35-1.23,3.88-1.64c1.51-0.43,2.86-0.69,4.04-0.78c1.19-0.11,2.44-0.16,3.75-0.16c1.35,0,2.61,0.05,3.82,0.16
		c1.19,0.09,2.56,0.36,4.07,0.78c1.51,0.41,2.81,0.96,3.89,1.64c1.07,0.68,1.99,1.64,2.72,2.92
		C435.22,161.77,435.6,163.26,435.6,164.97z M427.7,179.33v-14.41c0-1.59-0.64-2.69-1.96-3.33c-1.3-0.65-3.2-0.97-5.73-0.97
		c-2.56,0-4.5,0.31-5.76,0.93c-1.3,0.63-1.94,1.76-1.94,3.37v14.41c0,0.85,0.23,1.55,0.66,2.11c0.44,0.56,1.07,0.95,1.9,1.18
		c0.82,0.24,1.62,0.41,2.38,0.48c0.75,0.09,1.69,0.14,2.79,0.14c1.12,0,2.06-0.05,2.81-0.14c0.76-0.07,1.55-0.24,2.36-0.48
		c0.8-0.23,1.42-0.62,1.85-1.18C427.49,180.88,427.7,180.19,427.7,179.33z"/>
	<path class="st1" d="M480.44,155.53v23.81c0,6.35-4.75,9.51-14.26,9.51c-9.46,0-14.19-3.17-14.19-9.51v-23.81h7.88v23.81
		c0,1.49,0.48,2.51,1.48,3.07c0.96,0.56,2.63,0.84,4.94,0.84c2.31,0,3.91-0.28,4.85-0.84s1.42-1.57,1.42-3.07v-23.81H480.44z"/>
	<path class="st1" d="M523.68,163.05v6.22c0,3.24-1.09,5.45-3.24,6.63c-2.15,1.17-5.71,1.77-10.67,1.77h-4.34v10.68h-7.89v-32.82
		h13.16c4.64,0,7.97,0.51,9.97,1.54C522.68,158.09,523.68,160.09,523.68,163.05z M516.05,169.02v-5.26c0-1.04-0.41-1.74-1.21-2.1
		c-0.82-0.36-2.31-0.53-4.5-0.53h-4.91v11.13h5c2.06,0,3.5-0.25,4.36-0.73C515.62,171.04,516.05,170.19,516.05,169.02z"/>
</g>
<g>
	<path d="M78.24,20.25c-2.04-1.17-4.46-1.15-6.48,0.04c-0.13,0.08-0.25,0.17-0.37,0.28L43.87,46.19c-0.31,0.14-0.65,0.22-1,0.22
		H25.57c-3.55,0-6.44,2.89-6.44,6.45v26.6c0,3.55,2.89,6.44,6.44,6.44h17.31c0.35,0,0.69,0.08,1,0.23l27.53,25.62
		c0.11,0.11,0.23,0.21,0.37,0.28c1.02,0.6,2.15,0.9,3.27,0.9c1.11,0,2.2-0.29,3.21-0.86c2.03-1.17,3.25-3.26,3.25-5.61V25.85
		C81.49,23.5,80.27,21.41,78.24,20.25L78.24,20.25z M77.33,106.47c0,1.21-0.8,1.8-1.16,2c-0.32,0.18-1.17,0.54-2.13,0.07
		L46.51,82.91c-0.11-0.1-0.23-0.19-0.37-0.28c-1-0.58-2.12-0.88-3.27-0.88H25.57c-1.26,0-2.29-1.04-2.29-2.29v-26.6
		c0-1.27,1.04-2.29,2.29-2.29h17.31c1.15,0,2.28-0.32,3.27-0.89c0.13-0.07,0.25-0.16,0.37-0.28l27.54-25.63
		c0.96-0.47,1.8-0.11,2.13,0.08c0.35,0.19,1.15,0.79,1.15,1.99V106.47z M77.33,106.47"/>
	<path d="M96.56,40.79c-0.81-0.81-2.12-0.81-2.93,0c-0.81,0.81-0.81,2.12,0,2.93c12.96,12.97,12.96,34.07,0,47.04
		c-0.81,0.81-0.81,2.13,0,2.94c0.41,0.41,0.93,0.61,1.46,0.61c0.54,0,1.07-0.21,1.47-0.61C111.14,79.12,111.14,55.38,96.56,40.79
		L96.56,40.79z M96.56,40.79"/>
	<path d="M89.2,47.02c-0.81-0.81-2.13-0.81-2.94,0c-0.81,0.81-0.81,2.13,0,2.94c8.93,8.93,8.93,23.47,0,32.4
		c-0.81,0.81-0.81,2.12,0,2.93c0.41,0.41,0.94,0.61,1.47,0.61c0.54,0,1.07-0.2,1.47-0.61C99.75,74.74,99.75,57.58,89.2,47.02
		L89.2,47.02z M89.2,47.02"/>
	<path d="M102.65,30.4c-0.81-0.81-2.12-0.81-2.93,0c-0.81,0.81-0.81,2.12,0,2.93c9.06,9.05,14.04,21.08,14.04,33.87
		c0,12.79-4.98,24.82-14.04,33.87c-0.81,0.81-0.81,2.12,0,2.93c0.41,0.41,0.94,0.61,1.46,0.61c0.54,0,1.07-0.2,1.47-0.61
		c9.85-9.84,15.27-22.91,15.27-36.81C117.92,53.3,112.5,40.23,102.65,30.4L102.65,30.4z M102.65,30.4"/>
	<path d="M69.02,4.84C34.63,4.84,6.65,32.81,6.65,67.2c0,34.39,27.98,62.36,62.36,62.36c34.39,0,62.36-27.98,62.36-62.36
		C131.38,32.81,103.41,4.84,69.02,4.84L69.02,4.84z M69.02,125.4c-32.1,0-58.2-26.1-58.2-58.2c0-32.1,26.1-58.2,58.2-58.2
		c32.1,0,58.2,26.1,58.2,58.2C127.22,99.3,101.11,125.4,69.02,125.4L69.02,125.4z M69.02,125.4"/>
</g>
</svg>
